<?xml version="1.0" encoding="UTF-8"?>
<svg width="109px" height="58px" viewBox="0 0 109 58" version="1.1" xmlns="http://www.w3.org/2000/svg" xmlns:xlink="http://www.w3.org/1999/xlink">
    <g id="Welcome" stroke="none" stroke-width="1" fill="none" fill-rule="evenodd">
        <g id="gtp_tread_depth" transform="translate(-984.000000, -678.000000)" fill="#000">
            <path d="M992.977326,678 L1078.57075,678 C1081.60149,678 1084.34496,679.190082 1086.12606,680.996711 C1088.02207,682.918048 1088.85517,685.541962 1089.14245,688.553012 L1090.17663,702.360825 L1003.9943,702.360825 L1003.9943,700.783609 L1081.78822,700.783609 L1081.78822,691.721783 L1003.9943,691.721783 L989.05603,691.721783 L989.05603,700.783609 L989.05603,702.360825 L984,702.360825 L984,686.961457 C984,682.029071 988.05057,678 992.977326,678 Z M1080.8833,699.865956 L1080.8833,692.625098 L989.975308,692.625098 L989.975308,715.107602 L1003.08939,715.107602 L1003.08939,699.865956 L1080.8833,699.865956 Z M1040.2627,707.99579 L1052.6155,707.99579 C1053.47732,707.99579 1054.18115,708.698368 1054.18115,709.558668 L1054.18115,714.376347 C1054.18115,715.236647 1053.47732,715.939225 1052.6155,715.939225 L1040.2627,715.939225 C1039.40088,715.939225 1038.69705,715.236647 1038.69705,714.376347 L1038.69705,709.558668 C1038.69705,708.698368 1039.40088,707.99579 1040.2627,707.99579 Z M1081.07003,714.261641 L1081.07003,705.802025 C1081.07003,704.941725 1081.77386,704.239147 1082.63568,704.239147 L1087.46189,704.239147 C1088.32371,704.239147 1088.95572,704.941725 1089.02754,705.802025 L1089.68827,714.261641 C1089.76009,715.12194 1088.98444,715.824519 1088.12262,715.824519 L1082.63568,715.824519 C1081.77386,715.81018 1081.07003,715.107602 1081.07003,714.261641 Z M1071.94907,720.871611 L1071.94907,705.787687 C1071.94907,704.927387 1072.65289,704.224808 1073.51472,704.224808 L1078.32656,704.224808 C1079.18839,704.224808 1079.89221,704.927387 1079.89221,705.787687 L1079.89221,720.857273 C1079.89221,721.717573 1079.18839,722.420151 1078.32656,722.420151 L1073.50035,722.420151 C1072.65289,722.420151 1071.94907,721.717573 1071.94907,720.871611 Z M1056.83843,707.99579 L1069.19124,707.99579 C1070.05306,707.99579 1070.75688,708.698368 1070.75688,709.558668 L1070.75688,714.376347 C1070.75688,715.236647 1070.05306,715.939225 1069.19124,715.939225 L1056.83843,715.939225 C1055.97661,715.939225 1055.27279,715.236647 1055.27279,714.376347 L1055.27279,709.558668 C1055.28715,708.698368 1055.99097,707.99579 1056.83843,707.99579 Z M1023.71569,707.99579 L1036.06849,707.99579 C1036.93032,707.99579 1037.63414,708.698368 1037.63414,709.558668 L1037.63414,714.376347 C1037.63414,715.236647 1036.93032,715.939225 1036.06849,715.939225 L1023.71569,715.939225 C1022.85387,715.939225 1022.15005,715.236647 1022.15005,714.376347 L1022.15005,709.558668 C1022.15005,708.698368 1022.85387,707.99579 1023.71569,707.99579 Z M1073.38544,682.502236 L1083.13841,682.502236 C1085.4366,682.502236 1087.1028,684.380558 1087.30389,686.660352 L1087.49062,688.882794 C1087.56244,689.743094 1086.78679,690.445672 1085.92497,690.445672 L1073.38544,690.445672 C1072.52362,690.445672 1071.8198,689.743094 1071.8198,688.882794 L1071.8198,684.065114 C1071.83416,683.204814 1072.52362,682.502236 1073.38544,682.502236 Z M1040.2627,682.502236 L1052.6155,682.502236 C1053.47732,682.502236 1054.18115,683.204814 1054.18115,684.065114 L1054.18115,688.882794 C1054.18115,689.743094 1053.47732,690.445672 1052.6155,690.445672 L1040.2627,690.445672 C1039.40088,690.445672 1038.69705,689.743094 1038.69705,688.882794 L1038.69705,684.065114 C1038.69705,683.204814 1039.40088,682.502236 1040.2627,682.502236 Z M1007.16868,682.502236 L1019.52148,682.502236 C1020.38331,682.502236 1021.08713,683.204814 1021.08713,684.065114 L1021.08713,688.882794 C1021.08713,689.743094 1020.38331,690.445672 1019.52148,690.445672 L1007.16868,690.445672 C1006.30686,690.445672 1005.60304,689.743094 1005.60304,688.882794 L1005.60304,684.065114 C1005.60304,683.204814 1006.30686,682.502236 1007.16868,682.502236 Z M1056.83843,682.502236 L1069.19124,682.502236 C1070.05306,682.502236 1070.75688,683.204814 1070.75688,684.065114 L1070.75688,688.882794 C1070.75688,689.743094 1070.05306,690.445672 1069.19124,690.445672 L1056.83843,690.445672 C1055.97661,690.445672 1055.27279,689.743094 1055.27279,688.882794 L1055.27279,684.065114 C1055.28715,683.204814 1055.99097,682.502236 1056.83843,682.502236 Z M1023.71569,682.502236 L1036.06849,682.502236 C1036.93032,682.502236 1037.63414,683.204814 1037.63414,684.065114 L1037.63414,688.882794 C1037.63414,689.743094 1036.93032,690.445672 1036.06849,690.445672 L1023.71569,690.445672 C1022.85387,690.445672 1022.15005,689.743094 1022.15005,688.882794 L1022.15005,684.065114 C1022.15005,683.204814 1022.85387,682.502236 1023.71569,682.502236 Z M993.22151,682.502236 L1002.97448,682.502236 C1003.8363,682.502236 1004.54012,683.204814 1004.54012,684.065114 L1004.54012,688.882794 C1004.54012,689.743094 1003.8363,690.445672 1002.97448,690.445672 L990.621676,690.445672 C989.759853,690.445672 989.05603,689.743094 989.05603,688.882794 L989.05603,686.660352 C989.05603,684.380558 990.937678,682.502236 993.22151,682.502236 Z M1090.24845,703.106419 L1092.34556,729.187844 L1090.69373,729.187844 C1090.69373,725.115758 1087.39007,721.803603 1083.29641,721.803603 C1079.21711,721.803603 1075.89909,725.101419 1075.89909,729.187844 L1012.55508,729.187844 C1012.55508,725.115758 1009.25142,721.803603 1005.15776,721.803603 C1001.07847,721.803603 997.760446,725.101419 997.760446,729.187844 L984,729.187844 L984,703.106419 L989.05603,703.106419 L989.05603,716.025255 L1003.9943,716.025255 L1003.9943,703.106419 L1090.24845,703.106419 Z M1005.18465,722.463129 C1008.83304,722.463129 1011.79196,725.416825 1011.79196,729.058762 C1011.79196,732.700698 1008.83304,735.654394 1005.18465,735.654394 C1001.53626,735.654394 998.577338,732.700698 998.577338,729.058762 C998.591701,725.402487 1001.55063,722.463129 1005.18465,722.463129 Z M1083.7403,722.463129 C1087.38869,722.463129 1090.34761,725.416825 1090.34761,729.058762 C1090.34761,732.700698 1087.38869,735.654394 1083.7403,735.654394 C1080.09192,735.654394 1077.13299,732.700698 1077.13299,729.058762 C1077.13299,725.402487 1080.09192,722.463129 1083.7403,722.463129 Z" id="Combined-Shape"></path>
        </g>
    </g>
</svg>