<?xml version="1.0" encoding="UTF-8"?>
<svg id="Layer_2" data-name="Layer 2" xmlns="http://www.w3.org/2000/svg" viewBox="0 0 729.05 323.57">
  <defs>
    <style>
      .cls-1 {
        fill: #e11f26;
      }

      .cls-1, .cls-2, .cls-3, .cls-4, .cls-5 {
        stroke-width: 0px;
      }

      .cls-2 {
        fill: #0074af;
      }

      .cls-3 {
        fill: #fff;
      }

      .cls-4 {
        fill: #e21f26;
      }

      .cls-5 {
        fill: #0073ad;
      }
    </style>
  </defs>
  <g id="Layer_1-2" data-name="Layer 1">
    <path class="cls-4" d="M57.61,161.79c0-57.53,46.64-104.17,104.17-104.17,8.85,0,17.45,1.11,25.66,3.19l2.87-10.95c-9.12-2.32-18.68-3.55-28.53-3.55-63.78,0-115.48,51.7-115.48,115.48,0,53.37,36.2,98.27,85.39,111.51l2.87-10.96c-44.33-11.97-76.95-52.44-76.95-100.56Z"/>
    <path class="cls-3" d="M307.59,213.31c-5.07,2.64-11,4.07-17.51,4.07h-15.45c-20.53,41.59-63.34,70.21-112.86,70.21-69.48,0-125.8-56.32-125.8-125.8s56.32-125.8,125.8-125.8c56.91,0,104.97,37.8,120.51,89.65h37.18C303.04,53.7,238.7,0,161.79,0,72.43,0,0,72.43,0,161.79s72.43,161.79,161.79,161.79c70.31,0,130.12-44.86,152.43-107.51-2.43-.69-4.66-1.6-6.62-2.75Z"/>
    <g>
      <path class="cls-3" d="M104.06,198.73c1.74-3.24,2.9-6.37,3.82-10.43l12.98-53.29c.81-3.24,1.27-5.91,1.16-8.11l-.12-2.32h60.82l-.81,11.24c-3.24-1.51-8.23-1.74-10.66-1.74h-28.5l-5.33,22.47h24.91c2.32,0,7.3-.23,11.35-1.74l-3.13,12.98c-3.24-1.5-8.11-1.74-10.54-1.74h-24.91l-5.67,23.17h28.5c2.32,0,7.64-.23,11.47-1.74l-4.52,11.24h-60.82Z"/>
      <path class="cls-3" d="M174.6,198.73l.7-9.38c3.71,1.16,7.64,1.27,11.58,1.27h26.07c2.32,0,4.29-.92,4.87-3.24l.7-2.78c.11-.35.23-1.39.23-1.62,0-1.5-.92-2.55-3.24-2.55h-26.18c-5.79,0-9.27-2.9-9.27-8.81,0-1.97.35-4.06.81-6.02l1.5-6.61c1.62-6.95,5.79-14.71,15.64-14.71h48.43l-.7,9.38c-3.82-1.16-7.41-1.27-11.7-1.27h-26.76c-2.32,0-4.06,1.04-4.4,3.24l-.46,2.08c-.12.35-.23,1.16-.23,1.51,0,1.62,1.27,2.2,2.67,2.2h25.49c5.56,0,11.01,1.85,11.01,8.34,0,1.5-.12,2.55-.47,3.94l-3.12,12.86c-1.97,8.22-8.11,12.16-16.34,12.16h-46.8Z"/>
      <path class="cls-3" d="M243.28,198.73l.7-9.38c3.71,1.16,7.64,1.27,11.58,1.27h26.07c2.32,0,4.29-.92,4.87-3.24l.7-2.78c.11-.35.23-1.39.23-1.62,0-1.5-.92-2.55-3.24-2.55h-26.18c-5.79,0-9.27-2.9-9.27-8.81,0-1.97.35-4.06.81-6.02l1.5-6.61c1.62-6.95,5.79-14.71,15.64-14.71h48.43l-.7,9.38c-3.82-1.16-7.41-1.27-11.7-1.27h-26.76c-2.32,0-4.06,1.04-4.4,3.24l-.46,2.08c-.12.35-.23,1.16-.23,1.51,0,1.62,1.27,2.2,2.67,2.2h25.49c5.56,0,11.01,1.85,11.01,8.34,0,1.5-.12,2.55-.47,3.94l-3.12,12.86c-1.97,8.22-8.11,12.16-16.34,12.16h-46.8Z"/>
      <path class="cls-3" d="M374.29,198.73h-50.28c-6.26,0-10.54-2.2-10.54-8.92,0-2.78.47-4.52,1.16-7.3l5.79-23.63c2.2-9.04,7.18-14.6,16.8-14.6h38.35c6.26,0,10.77,2.2,10.77,8.92,0,1.85-.35,3.82-.81,5.68l-4.29,17.61h-44.95l-2.32,9.61c-.23.93-.35,1.51-.35,1.97,0,1.85,1.27,2.09,2.55,2.09h35.68c2.08,0,4.17-.35,6.26-.7l-3.82,9.27ZM365.84,156.91c.11-.58.35-1.27.35-1.85,0-1.74-1.04-2.2-2.67-2.2h-18.42c-2.43,0-3.47,1.62-4.05,3.82l-2.67,11.24h24.79l2.67-11.01Z"/>
      <path class="cls-3" d="M416.44,149.84h.23c1.85-3.01,3.48-5.56,7.3-5.56h25.37c6.26,0,10.66,2.2,10.66,8.92,0,1.85-.35,3.82-.81,5.68l-6.61,27.22c-1.04,4.17-1.97,8.34-1.85,12.63h-22.47c1.85-3.94,3.01-7.99,4.05-12.28l6.6-27.11c.23-.93.93-3.36.93-4.4,0-1.74-1.27-2.09-2.9-2.09h-17.38c-2.67,0-3.59,1.62-4.17,4.06l-6.95,28.61c-1.05,4.4-2.09,8.57-1.97,13.21h-22.48c1.85-3.94,3.13-8.34,4.17-12.63l7.06-28.96c1.04-4.17,2.09-8.57,1.85-12.86h20.16l-.81,5.56Z"/>
      <path class="cls-3" d="M518.14,144.28l-1.97,8.11h-19.58l-6.83,28.38c-1.51,6.02-1.27,6.49-1.27,7.18,0,.35.11,2.2,3.59,2.2h9.61c2.2,0,8.92-.23,10.66-1.27l-4.17,9.85h-30.01c-6.02,0-9.96-3.01-9.96-9.27,0-2.43.47-4.87,1.05-7.18l7.18-29.89h-10.54l1.97-8.11h10.54l2.67-11.12,20.85-2.67-3.36,13.79h19.58Z"/>
      <path class="cls-3" d="M538.98,198.73h-22.48c1.85-3.94,3.13-8.46,4.17-12.74l7.06-28.97c1.05-4.17,1.85-8.46,1.85-12.74h21.32l-10.08,41.48c-1.04,4.4-1.85,8.46-1.85,12.98ZM532.38,138.96l3.13-12.98h19.46l-3.13,12.98h-19.46Z"/>
      <path class="cls-3" d="M596.43,198.73l.35-5.68h-.23c-2.2,3.48-4.17,5.68-8.8,5.68h-25.72c-6.95,0-10.08-2.43-10.08-9.73,0-4.17,1.27-8.92,2.43-12.86,2.66-8.92,6.49-15.18,16.68-15.18h29.08c1.39,0,2.9-.7,3.36-2.55l.81-3.47c.23-1.16.12-2.55-2.09-2.55h-31.28c-3.13,0-6.26.46-9.27,1.16l3.47-9.27h48.66c6.26,0,10.54,2.2,10.54,8.92,0,1.85-.35,3.82-.81,5.68l-6.72,27.45c-1.05,4.17-1.74,8.11-1.74,12.4h-18.65ZM596.9,185.64l3.82-16.1h-21.66c-2.55,0-3.48,1.62-4.06,3.94l-2.66,11.24c-.23,1.04-.7,2.43-.7,3.47,0,1.85,1.62,1.97,2.55,1.97h18.3c3.01,0,3.82-1.85,4.4-4.52Z"/>
      <path class="cls-3" d="M623.75,198.73c2.55-4.87,3.82-11.47,4.06-12.4l11.93-49.01c1.5-6.37,1.85-9.04,1.85-12.74h21.31l-14.6,60.59c-1.05,4.52-2.09,8.11-2.09,13.55h-22.48Z"/>
      <path class="cls-3" d="M657.23,198.73l.7-9.38c3.71,1.16,7.64,1.27,11.58,1.27h26.07c2.32,0,4.29-.92,4.87-3.24l.7-2.78c.12-.35.23-1.39.23-1.62,0-1.5-.92-2.55-3.24-2.55h-26.18c-5.79,0-9.27-2.9-9.27-8.81,0-1.97.35-4.06.81-6.02l1.5-6.61c1.62-6.95,5.79-14.71,15.64-14.71h48.42l-.69,9.38c-3.82-1.16-7.41-1.27-11.7-1.27h-26.76c-2.32,0-4.06,1.04-4.4,3.24l-.46,2.08c-.12.35-.23,1.16-.23,1.51,0,1.62,1.27,2.2,2.67,2.2h25.49c5.56,0,11.01,1.85,11.01,8.34,0,1.5-.12,2.55-.46,3.94l-3.13,12.86c-1.97,8.22-8.11,12.16-16.34,12.16h-46.8Z"/>
    </g>
    <g>
      <path id="Shape" class="cls-1" d="M384.34,124.03h-26.19c-9.48,0-21.08.75-20.08-2.62.5-1.75,7.61-28.69,7.61-28.69,1.5-6.36,4.49-5.24,10.35-5.24h55.88l-1.25,4.99-42.41.12c-3.87-.25-8.48-.25-9.48,2.25l-5.99,22.33c0,.37-.87,1.87,4.37,1.87l26.94.12c3.24,0,5.99-.12,6.49-1.87l2.62-10.1h-15.47l1.5-5.36h28.94l-4.49,17.21c-1.37,4.61-6.11,4.99-19.33,4.99"/>
      <path id="Shape-2" data-name="Shape" class="cls-5" d="M426.58,103.07l-3.87,14.34c-.5,1.37,1,1.75,3.87,1.75h26.32l-1.25,4.86h-38.29c-6.11,0-5.24-1.37-4.24-5.36l4.12-15.96,3.99-14.84,12.1,4.49-1.62,5.86h30.56l-1.37,4.86h-30.31Z"/>
    </g>
    <g>
      <path class="cls-2" d="M249.86,217.38c-18.46,29.18-50.99,48.58-88.08,48.58-9.42,0-18.54-1.27-27.22-3.61l-2.87,10.95c9.6,2.58,19.68,3.97,30.09,3.97,43.62,0,81.58-24.19,101.23-59.89h-13.15Z"/>
      <path class="cls-2" d="M259.46,125.64h7.06c.06,0,.12,0,.17,0h4.78c-12.25-37.2-42.88-66.05-81.15-75.78l-2.87,10.95c33.33,8.44,60.22,32.98,72.01,64.83Z"/>
    </g>
  </g>
</svg>