<?xml version="1.0" encoding="UTF-8"?>
<svg width="300px" height="213px" viewBox="0 0 300 213" version="1.1" xmlns="http://www.w3.org/2000/svg" xmlns:xlink="http://www.w3.org/1999/xlink">
    <!-- Generator: Sketch 49.3 (51167) - http://www.bohemiancoding.com/sketch -->
    <title>Group Copy</title>
    <desc>Created with Sketch.</desc>
    <defs>
        <polygon id="path-1" points="0.126009732 0.22377129 14.7121411 0.22377129 14.7121411 14.5985401 0.126009732 14.5985401"></polygon>
        <polygon id="path-3" points="0.050486618 0.223868613 14.636618 0.223868613 14.636618 14.5985401 0.050486618 14.5985401"></polygon>
    </defs>
    <g id="Welcome" stroke="none" stroke-width="1" fill="none" fill-rule="evenodd">
        <g id="gtp_tread_depth" transform="translate(-419.000000, -560.000000)">
            <g id="Group" transform="translate(419.000000, 560.000000)">
                <g id="Group-Copy">
                    <path d="M61.4674209,43.1737226 C64.1333577,40.9620438 66.8822628,38.8472019 69.7109732,36.836983 L63.2409002,27.5965937 C60.1433333,29.7958637 57.1338443,32.1107056 54.2168127,34.5328467 L61.4674209,43.1737226 Z" id="Fill-5" fill="#87A259"></path>
                    <path d="M44.2692214,60.1632847 C46.5159367,57.5216788 48.860219,54.9657178 51.2959854,52.5000243 L43.320073,44.5243552 C40.6524331,47.2219221 38.0860097,50.0197324 35.6281022,52.9126764 L44.2692214,60.1632847 Z" id="Fill-7" fill="#87A259"></path>
                    <path d="M71.1054501,35.8591241 C73.9514355,33.8883212 76.8757664,32.0226277 79.8709002,30.2652068 L74.2302676,20.4951338 C70.9504623,22.4177616 67.7492457,24.4593674 64.6348905,26.6180049 L71.1054501,35.8591241 Z" id="Fill-9" fill="#ED7E30"></path>
                    <path d="M52.500146,51.2959367 C54.9658394,48.8601703 57.5215572,46.5158881 60.1634063,44.2691727 L52.9125547,35.6280535 C50.0196107,38.0862044 47.2220438,40.6523844 44.5242336,43.3200243 L52.500146,51.2959367 Z" id="Fill-11" fill="#87A259"></path>
                    <path d="M11.7254745,161.199489 C11.4505353,157.770535 11.3006569,154.306545 11.2797324,150.811898 L0.000170316302,150.811898 C0.0213381995,154.637932 0.185571776,158.429659 0.488248175,162.182701 L11.7254745,161.199489 Z" id="Fill-13" fill="#617540"></path>
                    <path d="M103.315864,19.3160097 C106.568175,18.1546959 109.876204,17.1109002 113.235328,16.1909489 L110.315134,5.29265207 C106.637275,6.29824818 103.01635,7.44082725 99.4572263,8.71381995 L103.315864,19.3160097 Z" id="Fill-15" fill="#ED7E30"></path>
                    <path d="M114.880876,15.7511922 C118.218589,14.8811192 121.605207,14.1324574 125.03562,13.5098297 L123.07674,2.3993674 C119.320779,3.07917275 115.613723,3.8993674 111.960681,4.853382 L114.880876,15.7511922 Z" id="Fill-17" fill="#ED7E30"></path>
                    <path d="M126.713431,13.2160584 C130.110024,12.6428224 133.548467,12.1934307 137.02438,11.8717762 L136.041168,0.634306569 C132.235815,0.984428224 128.472068,1.47688564 124.754307,2.10608273 L126.713431,13.2160584 Z" id="Fill-19" fill="#ED7E30"></path>
                    <path d="M92.1087835,23.8823358 C95.2496594,22.4387835 98.4535523,21.1090998 101.715353,19.8986375 L97.856472,9.29620438 C94.2849392,10.619562 90.7778832,12.0755231 87.3406569,13.6572749 L92.1087835,23.8823358 Z" id="Fill-21" fill="#ED7E30"></path>
                    <path d="M11.8718248,137.024355 C12.1934793,133.548443 12.642871,130.11 13.2161071,126.713406 L2.10613139,124.754282 C1.47693431,128.472044 0.984476886,132.235791 0.634111922,136.041144 L11.8718248,137.024355 Z" id="Fill-23" fill="#617540"></path>
                    <path d="M13.5097567,125.035669 C14.1323844,121.605012 14.8812895,118.218394 15.7511192,114.880925 L4.853309,111.96073 C3.8992944,115.613771 3.07909976,119.320827 2.3992944,123.076545 L13.5097567,125.035669 Z" id="Fill-25" fill="#87A259"></path>
                    <path d="M11.279708,149.108783 C11.3006326,145.614136 11.4505109,142.150146 11.7254501,138.721192 L0.488223844,137.738224 C0.185547445,141.491022 0.0213138686,145.282749 0.000145985401,149.108783 L11.279708,149.108783 Z" id="Fill-27" fill="#617540"></path>
                    <path d="M16.1910462,113.235304 C17.1109976,109.87618 18.1547932,106.568151 19.3161071,103.315839 L8.71391727,99.4572019 C7.44092457,103.016326 6.2983455,106.637251 5.29274939,110.315109 L16.1910462,113.235304 Z" id="Fill-29" fill="#87A259"></path>
                    <path d="M30.2651825,79.8709732 C32.0228467,76.8755961 33.8885401,73.9515085 35.8590998,71.1055231 L26.6179805,64.6347202 C24.4595864,67.7493187 22.4177372,70.9505353 20.4951095,74.2300973 L30.2651825,79.8709732 Z" id="Fill-31" fill="#87A259"></path>
                    <path d="M36.8370073,69.7109246 C38.8472263,66.8824574 40.9620681,64.133309 43.173747,61.4673723 L34.532871,54.216764 C32.1107299,57.1340389 29.7958881,60.1432847 27.596618,63.2408516 L36.8370073,69.7109246 Z" id="Fill-33" fill="#87A259"></path>
                    <path d="M19.8986375,101.715426 C21.1090998,98.453382 22.4387835,95.2494891 23.8823358,92.1088564 L13.6572749,87.3404866 C12.0755231,90.7779562 10.619562,94.2850122 9.29620438,97.856545 L19.8986375,101.715426 Z" id="Fill-35" fill="#87A259"></path>
                    <path d="M24.6031387,90.5658637 C26.0936496,87.4257178 27.6980292,84.350292 29.4121411,81.3454258 L19.6418248,75.7043066 C17.7642092,78.992871 16.0077616,82.3592944 14.3778345,85.7977372 L24.6031387,90.5658637 Z" id="Fill-37" fill="#87A259"></path>
                    <path d="M81.3453285,29.4121411 C84.3501946,27.6980292 87.4256204,26.0936496 90.5657664,24.6031387 L85.7976399,14.3778345 C82.3594404,16.0077616 78.9927737,17.7639659 75.7042092,19.6418248 L81.3453285,29.4121411 Z" id="Fill-39" fill="#ED7E30"></path>
                    <path d="M276.038394,92.1087591 C277.481946,95.249635 278.81163,98.453528 280.022092,101.715328 L290.624526,97.8564477 C289.301168,94.2849148 287.845207,90.7778589 286.263455,87.3406326 L276.038394,92.1087591 Z" id="Fill-41" fill="#E63A33"></path>
                    <path d="M270.508589,81.3453041 C272.222701,84.3501703 273.82708,87.4255961 275.317591,90.5657421 L285.542895,85.7976156 C283.912968,82.3594161 282.156764,78.9927494 280.278905,75.7041849 L270.508589,81.3453041 Z" id="Fill-43" fill="#E63A33"></path>
                    <path d="M248.624793,52.5001217 C251.06056,54.9658151 253.404842,57.5215328 255.651557,60.163382 L264.292676,52.9125304 C261.834526,50.0195864 259.268102,47.2220195 256.600706,44.5242092 L248.624793,52.5001217 Z" id="Fill-45" fill="#F7E164"></path>
                    <path d="M256.747007,61.4673966 C258.958686,64.1333333 261.073528,66.8822384 263.083747,69.7109489 L272.324136,63.2408759 C270.124866,60.143309 267.810024,57.13382 265.387883,54.2167883 L256.747007,61.4673966 Z" id="Fill-47" fill="#F7E164"></path>
                    <path d="M264.061606,71.1054258 C266.032409,73.9514112 267.898102,76.8757421 269.655523,79.8708759 L279.425596,74.2302433 C277.502968,70.950438 275.461363,67.7492214 273.302482,64.6348662 L264.061606,71.1054258 Z" id="Fill-49" fill="#E63A33"></path>
                    <path d="M280.60472,103.315839 C281.766034,106.568151 282.80983,109.87618 283.729781,113.235304 L294.628078,110.315109 C293.622482,106.637251 292.479903,103.016326 291.20691,99.4572019 L280.60472,103.315839 Z" id="Fill-51" fill="#E63A33"></path>
                    <path d="M297.81455,124.754355 L286.704574,126.713479 C287.27781,130.110073 287.727445,133.548516 288.048856,137.024428 L299.286569,136.041217 C298.936204,132.235864 298.443747,128.471873 297.81455,124.754355" id="Fill-53" fill="#E63A33"></path>
                    <path d="M284.169538,114.880852 C285.039611,118.218564 285.788273,121.605182 286.4109,125.035596 L297.521363,123.076715 C296.841557,119.320754 296.021363,115.613698 295.067348,111.960657 L284.169538,114.880852 Z" id="Fill-55" fill="#E63A33"></path>
                    <path d="M198.205304,19.8986131 C201.467348,21.1090754 204.671241,22.4387591 207.811873,23.8823114 L212.580243,13.6572506 C209.142774,12.0754988 205.635718,10.6195377 202.064185,9.29618005 L198.205304,19.8986131 Z" id="Fill-57" fill="#ED7E30"></path>
                    <path d="M174.885061,13.5097324 C178.315718,14.1323601 181.702336,14.8812652 185.039805,15.7510949 L187.96,4.85328467 C184.306959,3.89927007 180.599903,3.07907543 176.844185,2.39927007 L174.885061,13.5097324 Z" id="Fill-59" fill="#ED7E30"></path>
                    <path d="M162.896399,11.8718005 C166.372311,12.193455 169.810754,12.6428467 173.207348,13.2160827 L175.166472,2.10610706 C171.44871,1.47690998 167.684964,0.984452555 163.879611,0.634087591 L162.896399,11.8718005 Z" id="Fill-61" fill="#ED7E30"></path>
                    <path d="M186.685426,16.1910219 C190.04455,17.1109732 193.352579,18.1547689 196.604891,19.3160827 L200.463528,8.71389294 C196.904404,7.44090024 193.283479,6.29832117 189.60562,5.29272506 L186.685426,16.1910219 Z" id="Fill-63" fill="#ED7E30"></path>
                    <path d="M150.811971,11.2796837 C154.306618,11.3006083 157.770608,11.4504866 161.199562,11.7254258 L162.18253,0.488199513 C158.429732,0.185523114 154.638005,0.0212895377 150.811971,0.000121654501 L150.811971,11.2796837 Z" id="Fill-65" fill="#ED7E30"></path>
                    <path d="M239.757445,44.2691971 C242.399051,46.5159124 244.955012,48.8601946 247.420706,51.2959611 L255.396375,43.3200487 C252.698808,40.6526521 249.900998,38.0862287 247.008054,35.6280779 L239.757445,44.2691971 Z" id="Fill-67" fill="#F7E164"></path>
                    <path d="M230.20983,36.836983 C233.038297,38.8472019 235.787445,40.9620438 238.453382,43.1737226 L245.70399,34.5328467 C242.786715,32.1107056 239.77747,29.7958637 236.679903,27.5965937 L230.20983,36.836983 Z" id="Fill-69" fill="#F7E164"></path>
                    <path d="M209.354866,24.6031144 C212.495012,26.0936253 215.570438,27.6980049 218.575304,29.4121168 L224.216423,19.6418005 C220.927859,17.7641849 217.561436,16.0077372 214.122993,14.3778102 L209.354866,24.6031144 Z" id="Fill-71" fill="#F7E164"></path>
                    <path d="M138.721241,11.7254258 C142.150195,11.4504866 145.614185,11.3006083 149.108832,11.2796837 L149.108832,0.000121654501 C145.282798,0.0212895377 141.491071,0.185523114 137.738029,0.488199513 L138.721241,11.7254258 Z" id="Fill-73" fill="#ED7E30"></path>
                    <path d="M220.049757,30.2651582 C223.045134,32.0228224 225.969221,33.8885158 228.815207,35.8590754 L235.28601,26.6181995 C232.171411,24.459562 228.970195,22.4177129 225.690389,20.4950852 L220.049757,30.2651582 Z" id="Fill-75" fill="#F7E164"></path>
                    <path d="M288.641046,150.811946 C288.620122,154.306594 288.470243,157.770584 288.195304,161.199538 L299.43253,162.182506 C299.735207,158.429708 299.89944,154.637981 299.920608,150.811946 L288.641046,150.811946 Z" id="Fill-77" fill="#E63A33"></path>
                    <path d="M288.048929,162.89635 C287.727275,166.372263 287.277883,169.810706 286.704647,173.207299 L297.814623,175.166423 C298.44382,171.448662 298.936277,167.684915 299.286642,163.879562 L288.048929,162.89635 Z" id="Fill-79" fill="#E63A33"></path>
                    <path d="M288.195304,138.721217 C288.470243,142.15017 288.620122,145.614161 288.641046,149.108808 L299.920608,149.108808 C299.89944,145.282774 299.735207,141.491046 299.43253,137.738005 L288.195304,138.721217 Z" id="Fill-81" fill="#E63A33"></path>
                    <path d="M286.410998,174.885036 C285.78837,178.315693 285.039465,181.702311 284.169635,185.039781 L295.067445,187.959976 C296.02146,184.306934 296.841655,180.599878 297.52146,176.844161 L286.410998,174.885036 Z" id="Fill-83" fill="#E63A33"></path>
                    <path d="M283.729732,186.685401 C282.809781,190.044526 281.765985,193.352555 280.604672,196.604866 L291.206861,200.463504 C292.479854,196.90438 293.622433,193.283455 294.628029,189.605596 L283.729732,186.685401 Z" id="Fill-85" fill="#E63A33"></path>
                    <g id="Group-89" transform="translate(275.912409, 197.981509)">
                        <mask id="mask-2" fill="white">
                            <use xlink:href="#path-1"></use>
                        </mask>
                        <g id="Clip-88"></g>
                        <path d="M4.10970803,0.22377129 C2.89924574,3.48581509 1.56956204,6.68970803 0.126009732,9.83034063 L10.3510706,14.5987105 C11.9328224,11.1612409 13.3887835,7.65418491 14.7121411,4.08265207 L4.10970803,0.22377129 Z" id="Fill-87" fill="#E63A33" mask="url(#mask-2)"></path>
                    </g>
                    <path d="M19.3160341,196.604866 C18.1547202,193.352555 17.1109246,190.044526 16.1909732,186.685401 L5.2926764,189.605596 C6.29827251,193.283455 7.44085158,196.90438 8.71384428,200.463504 L19.3160341,196.604866 Z" id="Fill-90" fill="#617540"></path>
                    <path d="M15.7512165,185.039854 C14.8811436,181.702141 14.1324818,178.315523 13.509854,174.885109 L2.39939173,176.84399 C3.07919708,180.599951 3.89939173,184.307007 4.85340633,187.960049 L15.7512165,185.039854 Z" id="Fill-92" fill="#617540"></path>
                    <g id="Group-96" transform="translate(9.245742, 197.981509)">
                        <mask id="mask-4" fill="white">
                            <use xlink:href="#path-3"></use>
                        </mask>
                        <g id="Clip-95"></g>
                        <path d="M14.636618,9.83043796 C13.1930657,6.68956204 11.863382,3.4856691 10.6529197,0.223868613 L0.050486618,4.08274939 C1.37384428,7.65428224 2.82980535,11.1613382 4.41155718,14.5985645 L14.636618,9.83043796 Z" id="Fill-94" fill="#617540" mask="url(#mask-4)"></path>
                    </g>
                    <path d="M13.2160827,173.207299 C12.6428467,169.810706 12.193455,166.372263 11.8718005,162.89635 L0.6343309,163.879562 C0.984452555,167.684915 1.47690998,171.448662 2.10610706,175.166423 L13.2160827,173.207299 Z" id="Fill-97" fill="#617540"></path>
                </g>
            </g>
        </g>
    </g>
</svg>