<?xml version="1.0" encoding="UTF-8"?>
<svg width="200px" height="30px" viewBox="0 0 200 30" version="1.1" xmlns="http://www.w3.org/2000/svg" xmlns:xlink="http://www.w3.org/1999/xlink">
    <!-- Generator: Sketch 63.1 (92452) - https://sketch.com -->
    <title>Fill 1</title>
    <desc>Created with Sketch.</desc>
    <g id="Templates" stroke="none" stroke-width="1" fill="none" fill-rule="evenodd">
        <g id="gt_dashboard" transform="translate(-104.000000, -889.000000)" fill="#fff">
            <path d="M219.710849,913.223158 C219.471951,913.134187 219.220542,913.083303 218.966154,913.072614 C218.957068,913.072614 218.97509,913.214126 218.966154,913.223158 C218.819895,913.281268 218.670807,913.331399 218.519336,913.373702 C218.331524,913.414349 218.440398,913.509192 218.370397,913.674791 C218.370397,913.692856 218.237692,913.661242 218.221458,913.674791 C218.103796,913.772644 218.16784,914.149005 218.072518,914.276967 L220.157667,914.276967 C220.036877,913.894585 220.013047,913.421877 219.710849,913.223158 L219.710849,913.223158 Z M220.753424,914.7286 L218.072518,914.7286 C218.099328,915.246472 218.151307,915.631865 218.370397,915.932953 C218.589337,916.234042 218.982388,916.300281 219.264032,916.53513 C219.859789,916.581799 220.008728,916.187373 220.604485,916.234042 C220.44646,916.804604 219.859789,917.078595 219.115093,916.986763 C218.862343,916.962375 218.61287,916.911942 218.370397,916.836219 C218.303374,916.804604 218.276416,916.560723 218.221458,916.53513 C218.16635,916.509538 217.975708,916.581799 217.923579,916.53513 C217.847471,916.46588 217.828109,916.170813 217.77464,916.083498 C217.721022,915.996182 217.509528,915.85467 217.476762,915.782409 C217.420016,915.657458 217.530231,915.457234 217.476762,915.330777 C217.449804,915.269054 217.351504,915.330777 217.327823,915.180233 C217.258715,914.673501 217.309801,914.157586 217.476762,913.674791 C217.494486,913.6221 217.618105,913.674791 217.625701,913.524247 C217.625701,913.420371 217.923579,913.025945 218.072518,912.92207 C218.125988,912.884434 218.330034,912.971749 218.370397,912.92207 C218.385291,912.904005 218.352524,912.780558 218.370397,912.771526 C218.423866,912.745933 218.63253,912.815183 218.668275,912.771526 C218.678552,912.759482 218.65636,912.620981 218.668275,912.620981 C219.086794,912.514095 219.469568,912.711308 219.710849,912.771526 C220.044324,912.85583 220.054899,912.891961 220.306606,913.223158 C220.357246,913.290903 220.577527,913.462523 220.604485,913.524247 C220.723636,913.80727 220.732423,914.267935 220.753424,914.7286 L220.753424,914.7286 Z M216.732066,913.072614 C216.732066,913.458007 216.621851,913.256278 216.434187,913.223158 C216.027584,913.161435 215.613384,913.072614 215.242674,913.223158 C214.960732,913.377315 214.708578,913.581152 214.497978,913.825335 C214.457616,913.879531 214.547128,914.085776 214.497978,914.126423 C214.051161,914.492246 214.52017,915.922415 214.944796,916.234042 C215.171183,916.39964 215.419763,916.279205 215.540552,916.53513 C216.040839,916.629973 216.626319,916.03984 216.881005,916.384586 C216.816812,916.861811 216.148224,916.953643 215.689492,916.986763 C215.320122,917.013861 215.220333,916.905469 214.944796,916.836219 C214.59464,916.747397 214.627406,916.666104 214.349039,916.384586 C214.241654,916.276194 213.985627,916.205438 213.902221,916.083498 C213.864987,916.029302 213.951371,915.823056 213.902221,915.782409 C213.884349,915.767355 213.762219,915.800475 213.753282,915.782409 C213.727963,915.728213 213.796475,915.517451 213.753282,915.481321 C213.741367,915.472288 213.604343,915.493364 213.604343,915.481321 C213.231995,913.793721 214.573937,912.089561 216.732066,912.771526 C216.824259,912.907015 216.912282,913.041 216.732066,913.072614 L216.732066,913.072614 Z M212.116441,912.620981 L212.414319,912.620981 C212.911776,912.533666 212.692835,913.202082 212.712197,913.524247 C212.75539,914.24987 212.737517,915.058292 212.712197,915.932953 C212.703112,916.265656 212.844604,916.685674 212.563258,916.836219 C211.805158,916.97773 212.143101,915.845638 212.116441,915.180233 C212.086653,914.462137 212.138633,913.652209 212.116441,913.072614 L212.116441,912.620981 Z M209.584475,915.631865 C209.79284,915.621327 209.666391,915.338304 209.733414,915.180233 C209.770649,915.091411 210.001504,914.9499 210.031292,914.879144 C210.06108,914.808388 210.008802,914.666877 210.031292,914.578056 C210.067038,914.427512 210.215977,914.236321 210.32917,913.975879 C210.425832,913.754579 210.498812,913.292409 210.627049,913.072614 C210.775988,912.828732 210.775988,912.477965 211.222806,912.620981 C211.490896,912.92207 211.289828,913.182511 211.073866,913.524247 C210.955013,913.766773 210.855373,914.018483 210.775988,914.276967 C210.680518,914.559991 210.458748,915.029688 210.32917,915.330777 C210.145826,915.762839 209.964269,916.450825 209.584475,916.836219 C209.030421,916.897942 209.118295,916.218987 208.988718,915.932953 C208.955951,915.862198 208.848566,915.946502 208.839779,915.782409 C208.846034,915.732429 208.846034,915.681846 208.839779,915.631865 C208.690839,915.241956 208.342322,914.419984 208.095083,913.825335 C208.053529,913.721008 208.003634,913.620294 207.946144,913.524247 C207.904292,913.456502 207.83295,913.053043 207.648265,912.92207 C207.682372,912.705286 208.095083,912.869379 208.095083,912.620981 C208.267852,912.596894 208.360195,912.654101 208.392961,912.771526 C208.553815,913.280365 208.784671,913.751568 208.988718,914.276967 C209.151062,914.710535 209.246234,915.297657 209.584475,915.631865 L209.584475,915.631865 Z M207.350387,913.223158 C207.418899,913.840389 207.031508,913.161435 206.605691,913.373702 C206.410432,913.426393 206.371708,913.63866 206.158873,913.674791 C206.055956,914.180619 206.066531,915.073346 206.009934,915.932953 C205.992062,916.217482 206.2183,916.90848 205.712056,916.836219 C205.216088,916.919018 205.428922,916.234042 205.414178,915.932953 C205.372326,915.080873 205.445455,913.754579 205.414178,912.771526 C206.009934,912.56528 205.941422,913.041 206.158873,913.223158 C206.321217,913.185522 206.260003,912.92207 206.456752,912.92207 C206.484901,912.800129 206.605691,912.771526 206.605691,912.620981 C206.863803,912.566786 207.132638,912.620981 207.350387,912.771526 C207.454644,912.893466 207.582583,913.184017 207.350387,913.223158 L207.350387,913.223158 Z M203.626907,913.223158 C203.38786,913.134187 203.1366,913.083303 202.882211,913.072614 C202.871637,913.072614 202.890999,913.214126 202.882211,913.223158 C202.735953,913.281268 202.586716,913.331399 202.435394,913.373702 C202.247731,913.414349 202.356307,913.509192 202.286455,913.674791 C202.278859,913.692856 202.153899,913.661242 202.137516,913.674791 C202.019854,913.772644 202.083749,914.149005 201.988576,914.276967 L204.073725,914.276967 C203.952935,913.894585 203.929254,913.421877 203.628397,913.223158 L203.626907,913.223158 Z M204.669482,914.7286 L201.988576,914.7286 C202.015236,915.246472 202.067514,915.631865 202.286455,915.932953 C202.505246,916.234042 202.898595,916.300281 203.18009,916.53513 C203.775847,916.581799 203.924786,916.187373 204.520542,916.234042 C204.362518,916.804604 203.775847,917.078595 203.031151,916.986763 C202.778401,916.962375 202.528928,916.911942 202.286455,916.836219 C202.217943,916.804604 202.192474,916.560723 202.137516,916.53513 C202.082408,916.509538 201.891617,916.581799 201.839637,916.53513 C201.763678,916.46588 201.744316,916.170813 201.690698,916.083498 C201.636931,915.996182 201.425437,915.85467 201.39282,915.782409 C201.336074,915.657458 201.446438,915.457234 201.39282,915.330777 C201.366011,915.269054 201.267562,915.330777 201.24388,915.180233 C201.174773,914.673501 201.225859,914.157586 201.39282,913.674791 C201.410543,913.6221 201.534163,913.674791 201.541759,913.524247 C201.541759,913.420371 201.839637,913.025945 201.988576,912.92207 C202.042194,912.884434 202.246241,912.971749 202.286455,912.92207 C202.3012,912.904005 202.268582,912.780558 202.286455,912.771526 C202.340073,912.745933 202.548588,912.815183 202.584333,912.771526 C202.594759,912.759482 202.572418,912.620981 202.584333,912.620981 C203.002703,912.514095 203.385626,912.711308 203.626907,912.771526 C203.960531,912.85583 203.970808,912.891961 204.222664,913.223158 C204.273303,913.290903 204.493733,913.462523 204.520542,913.524247 C204.639694,913.80727 204.648481,914.267935 204.669482,914.7286 L204.669482,914.7286 Z M191.564323,914.427512 C191.564323,914.669888 191.291615,914.502784 191.117506,914.578056 C191.048994,914.608165 190.898565,914.829465 190.819627,914.879144 C190.655645,914.981514 190.49777,914.903231 190.37281,915.029688 C190.00776,915.400027 190.186636,916.000698 190.521749,916.384586 C191.619431,916.440287 191.891989,915.661974 191.862201,914.578056 C191.830924,914.460631 191.738433,914.403425 191.565813,914.427512 L191.564323,914.427512 Z M192.755837,916.685674 C192.536896,917.040959 191.606026,916.855789 191.862201,916.234042 C191.294594,916.58481 191.266445,916.970203 190.670688,916.986763 C190.344511,916.995795 189.648965,916.783528 189.628114,916.384586 C189.619028,916.212966 189.501367,916.306303 189.479175,916.234042 C189.258745,915.497881 189.754712,914.980009 190.22387,914.427512 C190.898565,914.407941 191.250061,914.058678 191.862201,913.975879 C191.926245,913.408328 191.54794,913.290903 191.266445,913.072614 C190.511323,912.890456 190.22387,913.721459 189.777053,913.373702 C189.95712,912.536677 191.206869,912.550226 192.011141,912.771526 C192.087249,912.981083 192.250486,913.14623 192.457958,913.223158 C192.615834,913.691351 192.593493,914.409446 192.606897,915.330777 C192.618813,915.815529 192.469873,916.389102 192.755837,916.685674 L192.755837,916.685674 Z M188.735968,913.072614 C188.735968,913.458007 188.625753,913.256278 188.43809,913.223158 C188.031486,913.161435 187.617435,913.072614 187.246576,913.223158 C186.964634,913.377315 186.71248,913.581152 186.50188,913.825335 C186.461667,913.879531 186.550881,914.085776 186.50188,914.126423 C186.055063,914.492246 186.524221,915.922415 186.948698,916.234042 C187.175085,916.39964 187.422176,916.279205 187.544455,916.53513 C188.04489,916.629973 188.630072,916.03984 188.884907,916.384586 C188.820863,916.861811 188.151978,916.953643 187.693394,916.986763 C187.324025,917.013861 187.224086,916.905469 186.948698,916.836219 C186.598691,916.747397 186.631309,916.666104 186.352941,916.384586 C186.245705,916.276194 185.98953,916.205438 185.906124,916.083498 C185.868889,916.029302 185.955125,915.823056 185.906124,915.782409 C185.888251,915.767355 185.766121,915.800475 185.757184,915.782409 C185.731716,915.728213 185.800228,915.517451 185.757184,915.481321 C185.745269,915.472288 185.608245,915.493364 185.608245,915.481321 C185.235897,913.793721 186.577839,912.089561 188.735968,912.771526 C188.826821,912.907015 188.916184,913.041 188.735968,913.072614 L188.735968,913.072614 Z M182.033705,913.674791 C181.540716,915.113993 182.133494,916.997301 183.672036,916.384586 C184.430136,915.711653 184.430136,913.896091 183.672036,913.223158 C182.937766,912.956695 182.483501,913.280365 182.033705,913.674791 L182.033705,913.674791 Z M182.629462,912.771526 C182.656122,912.771526 182.650164,912.620981 182.778401,912.620981 C182.884148,912.620981 183.706292,912.636036 183.969914,912.771526 C183.917786,912.745933 184.565671,913.327034 184.71461,913.524247 C184.754824,913.576937 184.66546,913.784688 184.71461,913.825335 C184.875167,913.988525 184.979573,914.199738 185.012489,914.427512 C185.161428,915.639392 184.267793,917.14935 182.92734,916.986763 C182.882509,916.986763 182.654781,917.018377 182.629462,916.986763 C182.603993,916.955148 182.641228,916.836219 182.629462,916.836219 C182.401585,916.779012 182.056046,916.807615 181.884766,916.685674 C181.512418,916.422222 180.949428,915.088401 181.14007,914.126423 C181.206199,914.096164 181.259072,914.042721 181.289009,913.975879 C181.309712,913.891574 181.250285,913.751568 181.289009,913.674791 C181.327733,913.598013 181.561419,913.579948 181.586887,913.524247 C181.664336,913.349615 181.649442,913.072614 181.884766,912.92207 C182.091642,912.78658 182.420947,912.818194 182.629462,912.771526 L182.629462,912.771526 Z M163.568225,913.524247 C163.509096,913.698276 163.406477,913.853788 163.270347,913.975879 C163.280773,914.868606 163.137791,915.916394 163.866104,916.083498 C164.884848,915.996182 164.884848,913.611562 163.866104,913.524247 L163.568225,913.524247 Z M164.46186,913.223158 C164.676333,913.188533 164.51384,912.771526 164.759739,912.771526 L166.100191,912.771526 C165.986998,914.286 166.249131,915.922415 166.100191,917.137307 C166.100191,917.137307 165.951252,917.177954 165.951252,917.287851 C165.928762,917.704858 165.855931,917.707869 165.653374,918.040572 C165.612565,918.1452 165.56267,918.245914 165.504435,918.34166 C165.386773,918.462096 165.206556,918.385318 165.057617,918.492204 C165.011446,918.52683 164.948892,918.775228 164.908678,918.793293 C164.788037,918.844478 164.591289,918.764689 164.46186,918.793293 C164.332283,918.821896 164.312921,918.927277 164.163982,918.943837 C163.435669,919.023625 162.686356,918.779744 161.929894,918.642749 C161.929894,918.287464 162.18607,918.200149 162.078834,917.739484 C162.664164,917.876629 163.266177,917.927363 163.866104,917.890028 C164.372497,917.700342 164.627183,917.254731 164.6108,916.53513 C164.545117,916.316841 164.479584,916.550185 164.312921,916.53513 C162.947,917.959278 161.156751,915.868219 161.632016,913.975879 C161.640803,913.939749 161.780955,913.960825 161.780955,913.825335 C161.789743,913.647693 162.041599,913.260794 162.227773,913.072614 C162.413947,912.884434 162.467565,912.861852 162.823529,912.771526 C163.222537,912.672167 163.988234,912.402692 164.46186,913.223158 L164.46186,913.223158 Z M160.745828,916.836219 L159.256436,916.836219 C159.095582,915.794453 159.654104,914.025559 158.809618,913.674791 C157.48406,913.640166 158.283863,915.7523 158.064923,916.836219 L156.426592,916.836219 L156.426592,912.771526 C156.956815,912.937124 158.213862,912.363551 158.064923,913.223158 C158.400036,912.875401 159.455866,912.282257 159.852193,912.771526 C159.892406,912.821205 160.096453,912.732384 160.150071,912.771526 C160.369012,912.935619 160.456886,913.358648 160.745828,913.373702 L160.745828,916.836219 Z M153.447808,913.373702 C153.240634,913.566399 153.356955,914.084271 153.14993,914.276967 L154.341443,914.276967 L154.341443,913.524247 C154.159588,913.351121 153.808241,913.354132 153.447808,913.373702 L153.447808,913.373702 Z M155.086139,912.92207 C155.404869,913.50317 155.812813,913.993944 155.681896,915.029688 L153.14993,915.029688 C153.283975,915.509924 153.410573,915.800475 153.894626,915.932953 C154.35172,916.057905 154.812091,915.869725 155.235078,915.782409 C155.541893,915.823056 155.375081,916.342434 155.681896,916.384586 C155.550829,916.800088 154.992307,916.75643 154.639321,916.836219 C153.943775,916.986763 153.56681,917.077089 152.852051,916.836219 C152.799923,916.818153 152.852051,916.693202 152.703112,916.685674 C152.513959,916.675136 152.448426,916.428244 152.256295,916.234042 C152.020971,915.996182 151.922522,916.083498 151.809477,915.631865 C151.787136,915.540033 151.55777,914.379338 151.660538,913.975879 C151.669474,913.938243 151.809477,913.96233 151.809477,913.825335 C151.849691,913.06057 153.286954,912.425274 154.341443,912.620981 C154.32506,912.620981 154.418891,912.75346 154.490382,912.771526 C154.683854,912.840174 154.883284,912.890606 155.086139,912.92207 L155.086139,912.92207 Z M151.362659,912.92207 C151.279551,913.3454 151.128527,913.75217 150.915842,914.126423 C150.346894,914.054162 149.96561,914.168576 149.724328,914.427512 L149.724328,916.836219 L148.085997,916.836219 L148.085997,912.771526 L149.724328,912.771526 L149.724328,913.524247 C149.996887,913.296925 150.074336,912.875401 150.320085,912.620981 C150.84867,912.533666 151.034844,912.797118 151.362659,912.92207 L151.362659,912.92207 Z M132.149505,915.932953 C133.062353,916.053389 133.148887,915.330777 133.192079,914.578056 C132.411489,914.546442 131.684666,915.195287 132.149505,915.932953 L132.149505,915.932953 Z M134.83041,916.685674 C134.690408,916.917512 134.000819,916.89192 133.638897,916.836219 C133.235272,916.774495 133.081715,916.717289 132.894201,916.53513 C132.465256,916.712772 132.170357,917.022893 131.702688,916.986763 C130.870118,916.923534 130.511174,916.161781 130.660113,915.029688 C131.218635,914.441061 132.000566,914.079755 133.04314,913.975879 C132.975969,913.072614 131.656516,913.691351 131.25587,913.825335 C131.282977,913.620444 131.155485,913.427146 130.957992,913.373702 C130.93863,912.896477 131.602898,912.870885 132.000566,912.771526 C132.745262,912.586356 133.09229,912.536677 133.787836,912.771526 C133.839965,912.789591 133.787836,912.914543 133.936775,912.92207 C134.085714,912.929597 134.307634,913.321012 134.532532,913.373702 C134.681471,913.825335 134.669556,914.444072 134.681471,915.330777 C134.681471,915.815529 134.545788,916.389102 134.83041,916.685674 L134.83041,916.685674 Z M129.915417,916.836219 L128.426026,916.836219 C128.265171,915.794453 128.823693,914.025559 127.979208,913.674791 C126.653649,913.640166 127.453453,915.7523 127.234512,916.836219 L125.596181,916.836219 L125.596181,912.771526 C126.126405,912.937124 127.383451,912.363551 127.234512,913.223158 C127.569625,912.875401 128.625455,912.283763 129.021782,912.771526 C129.061996,912.821205 129.266043,912.732384 129.319661,912.771526 C129.538601,912.935619 129.626475,913.358648 129.915417,913.373702 L129.915417,916.836219 Z M122.617398,916.234042 C123.659972,916.131672 123.659972,913.476072 122.617398,913.373702 C121.565887,913.554355 121.635888,916.036829 122.617398,916.234042 L122.617398,916.234042 Z M120.38331,913.975879 C120.979067,913.254772 121.623973,912.351507 123.213154,912.620981 C123.22641,912.620981 123.244432,912.771526 123.362093,912.771526 C123.567481,912.782064 124.255729,913.072614 124.404668,913.223158 C124.529628,913.352626 124.458137,913.497149 124.553607,913.674791 C124.593821,913.751568 124.829144,913.914156 124.851485,913.975879 C124.897656,914.106853 124.821549,914.290516 124.851485,914.427512 C124.881273,914.564507 125.000424,914.578056 125.000424,914.7286 C125.000424,914.973987 124.885741,914.986031 124.851485,915.180233 C124.799357,915.481321 124.830485,915.586702 124.702546,915.782409 C124.657864,915.85166 124.577437,915.893812 124.553607,915.932953 C124.508925,916.00672 124.47318,916.31383 124.404668,916.384586 C124.336156,916.455342 124.053171,916.474912 123.95785,916.53513 C123.86238,916.595348 123.731463,916.803099 123.659972,916.836219 C123.536352,916.893425 123.338114,916.782023 123.213154,916.836219 C123.153579,916.861811 123.213154,916.962676 123.064215,916.986763 C121.501694,917.257742 120.069048,916.167802 120.38331,913.975879 L120.38331,913.975879 Z M118.000283,912.620981 C118.54689,912.670661 119.318395,912.493019 119.638614,912.771526 L119.638614,916.836219 L118.000283,916.836219 L118.000283,912.620981 Z M111.29802,915.932953 C112.210868,916.053389 112.297402,915.330777 112.340594,914.578056 C111.562983,914.546442 110.836308,915.195287 111.29802,915.932953 L111.29802,915.932953 Z M113.978925,916.685674 C113.838922,916.917512 113.149334,916.89192 112.787412,916.836219 C112.383786,916.774495 112.23023,916.717289 112.042716,916.53513 C111.613771,916.712772 111.318871,917.022893 110.851202,916.986763 C110.018632,916.923534 109.659689,916.161781 109.808628,915.029688 C110.36715,914.441061 111.149081,914.079755 112.191655,913.975879 C112.124483,913.072614 110.805031,913.691351 110.404385,913.825335 C110.431492,913.620444 110.304,913.427146 110.106506,913.373702 C110.087144,912.896477 110.751413,912.870885 111.149081,912.771526 C111.893777,912.586356 112.240805,912.536677 112.936351,912.771526 C112.98848,912.789591 112.936351,912.914543 113.08529,912.92207 C113.234229,912.929597 113.456149,913.321012 113.681047,913.373702 C113.829986,913.825335 113.818071,914.444072 113.829986,915.330777 C113.829986,915.815529 113.697281,916.389102 113.978925,916.685674 L113.978925,916.685674 Z M168.632157,911.418133 L168.632157,912.471943 C168.65286,912.902499 169.65388,912.342475 169.674732,912.773031 L169.674732,913.074119 C169.795224,913.698878 168.757266,913.149392 168.632157,913.525752 C168.618604,914.391381 168.599391,915.264537 168.781097,915.934459 C168.982016,916.235547 169.823671,915.886285 169.823671,916.386091 C169.965163,916.934072 169.320108,916.744387 169.078975,916.988268 C168.837694,917.23215 167.321493,916.741376 167.291705,916.536636 C167.016167,915.811013 167.190426,914.632252 167.142766,913.676296 C167.165107,913.202082 166.311685,913.613068 166.547009,912.923575 C166.39807,912.471943 166.879143,912.657112 167.142766,912.622487 C167.142766,912.222039 167.08602,911.76288 167.291705,911.568678 C167.894909,911.671048 168.140658,911.424155 168.632157,911.418133 L168.632157,911.418133 Z M146.447666,911.418133 L146.447666,912.471943 C146.468518,912.902499 147.46924,912.342475 147.490241,912.773031 L147.490241,913.074119 C147.610881,913.698878 146.572626,913.149392 146.447666,913.525752 C146.434262,914.391381 146.414751,915.264537 146.596606,915.934459 C146.797674,916.235547 147.63918,915.886285 147.63918,916.386091 C147.780672,916.934072 147.135766,916.744387 146.894484,916.988268 C146.653054,917.23215 145.135512,916.741376 145.107214,916.536636 C144.831676,915.811013 145.005786,914.632252 144.958275,913.676296 C144.980616,913.202082 144.127194,913.613068 144.362518,912.923575 C144.213579,912.471943 144.694652,912.657112 144.958275,912.622487 C144.958275,912.222039 144.901678,911.76288 145.107214,911.568678 C145.702971,911.671048 145.951699,911.424155 146.447666,911.418133 L146.447666,911.418133 Z M116.361952,911.418133 L116.361952,912.471943 C116.382803,912.902499 117.383526,912.342475 117.404526,912.773031 L117.404526,913.074119 C117.525167,913.698878 116.486912,913.149392 116.361952,913.525752 C116.348547,914.391381 116.329036,915.264537 116.510891,915.934459 C116.711959,916.235547 117.553465,915.886285 117.553465,916.386091 C117.694958,916.934072 117.050051,916.744387 116.80877,916.988268 C116.567339,917.23215 115.049798,916.741376 115.021499,916.536636 C114.745962,915.811013 114.920072,914.632252 114.87256,913.676296 C114.894901,913.202082 114.04148,913.613068 114.276803,912.923575 C114.127864,912.471943 114.608938,912.657112 114.87256,912.622487 C114.87256,912.222039 114.815963,911.76288 115.021499,911.568678 C115.617256,911.671048 115.870453,911.424155 116.361952,911.418133 L116.361952,911.418133 Z M177.715958,910.966501 L178.162776,910.966501 C178.69151,910.966501 178.444271,911.675564 178.460654,912.02031 C178.515761,913.170468 178.42044,914.799356 178.460654,916.085003 C178.864279,916.536636 180.291117,915.934459 180.694742,916.386091 C180.806446,917.11322 179.911322,916.810626 179.354289,916.837724 C178.758532,916.867833 178.162776,916.815142 177.715958,916.837724 L177.715958,910.966501 Z M104,910.966501 L105.191513,910.966501 C106.038977,912.02031 106.736013,913.224664 107.72348,914.127929 L107.72348,910.966501 L108.914993,910.966501 L108.914993,916.837724 L108.021358,916.837724 C107.018997,915.893812 106.412815,914.550958 105.340453,913.676296 L105.340453,916.837724 L104,916.837724 L104,910.966501 Z M212.712197,910.815957 C212.916244,911.008653 212.916244,911.526525 212.712197,911.719222 C212.453937,911.773719 212.185102,911.719222 211.967501,911.568678 C211.933692,911.031687 212.181825,910.78088 212.712197,910.815957 L212.712197,910.815957 Z M200.500674,911.267589 C200.175987,912.163327 199.624912,911.20135 198.713404,911.418133 C198.363248,911.466308 198.37978,911.883315 198.117647,912.02031 C198.445313,913.846411 200.923512,913.498654 200.500674,916.085003 C200.372586,916.205438 200.177476,916.26114 200.053856,916.386091 C199.828958,916.613413 199.904917,916.72331 199.4581,916.837724 C199.160221,916.914501 198.124945,917.173437 197.52189,916.68718 C197.341674,916.733848 197.007901,916.252107 197.372951,916.235547 C197.347631,916.085003 197.407207,915.934459 197.52189,915.934459 C197.711043,915.934459 197.995517,916.345444 198.564465,916.386091 C199.09305,916.423727 199.568315,916.327379 199.755978,915.783915 C200.0196,915.022161 199.417886,914.669888 198.862343,914.127929 C198.57638,913.849422 198.156371,913.715438 197.819769,913.375208 C197.483166,913.034978 197.165777,912.076012 197.67083,911.418133 C197.74381,911.321785 198.117647,910.966501 198.117647,910.966501 C198.598125,910.81129 199.105561,910.760105 199.607039,910.815957 C199.623273,910.815957 199.636827,910.966501 199.755978,910.966501 C200.065772,910.98005 200.16854,911.130594 200.500674,911.267589 L200.500674,911.267589 Z M170.12006,910.815957 L171.758391,910.815957 L171.758391,912.923575 C171.9818,913.420371 172.121654,912.610443 172.503087,912.773031 C172.960181,912.321399 173.721409,912.837765 174.141418,912.923575 C174.114162,913.128466 174.241654,913.321765 174.439296,913.375208 L174.439296,916.837724 L172.949904,916.837724 C172.751666,915.783915 173.451829,913.82684 172.354148,913.676296 C171.256317,913.82684 171.95648,915.783915 171.758391,916.837724 L170.12006,916.837724 L170.12006,910.815957 Z M143.766761,911.117045 C143.805336,911.55814 143.430159,911.579216 143.468883,912.02031 C142.829934,912.005256 142.338435,911.678575 141.979491,912.170854 C142.294051,912.73404 142.696335,913.242428 143.171005,913.676296 C143.272283,913.77415 143.547672,913.862971 143.617822,913.977385 C143.652078,914.033086 143.570162,914.239331 143.617822,914.278473 C143.635695,914.293527 143.757825,914.260408 143.766761,914.278473 C143.792081,914.332669 143.723569,914.543431 143.766761,914.579561 C143.938041,914.721073 143.766761,915.031194 143.9157,915.181738 C144.06464,915.332282 143.963212,915.258516 143.9157,915.482826 C143.885764,915.618316 143.963212,915.804991 143.9157,915.934459 C143.89336,915.994677 143.774059,915.934459 143.766761,916.085003 C143.74874,916.431255 143.171005,916.705245 142.724187,916.837724 C142.053961,917.037948 140.837128,916.988268 140.192221,916.536636 C140.153497,916.095541 140.528675,916.074465 140.490099,915.633371 C141.105069,915.717675 142.012258,916.318347 142.277369,915.482826 C142.318923,914.608165 141.440182,914.231804 140.936917,913.676296 C140.865426,913.598013 140.689529,913.448974 140.639038,913.375208 C140.588399,913.301441 140.688188,913.114766 140.639038,913.074119 C140.621017,913.059065 140.499036,913.09369 140.490099,913.074119 C140.247328,912.560764 140.403715,911.499427 140.936917,911.117045 C141.067834,911.023708 141.751614,910.850582 141.979491,910.815957 C142.575248,910.724125 143.120365,910.98005 143.766761,911.117045 L143.766761,911.117045 Z M193.649472,910.665413 L193.94735,910.665413 C194.394168,910.514868 194.210972,911.001126 194.245228,911.267589 C194.137992,912.85583 194.386721,914.683437 194.245228,916.386091 C194.227207,916.596853 194.292889,916.813637 194.096289,916.837724 C193.372445,916.965687 193.670323,916.005215 193.649472,915.633371 C193.577981,914.382348 193.702941,912.46291 193.649472,911.117045 L193.649472,910.665413 Z M135.575106,916.837724 L137.213437,916.837724 L137.213437,910.665413 L135.575106,910.665413 L135.575106,916.837724 Z M118.298161,912.170854 C118.068795,911.893853 117.833322,911.418133 118.000283,910.966501 C118.043475,910.850582 118.423121,910.815957 118.447101,910.514868 C120.005004,910.236362 119.985642,912.619476 118.298161,912.170854 L118.298161,912.170854 Z M304,908.40725 C304,908.940176 303.200197,908.693284 302.659547,908.708338 C295.167907,908.925122 287.020933,908.708338 279.276096,908.708338 L104.446818,908.708338 C104.273899,908.708338 104.181706,908.694789 104.148939,908.557794 C104.12496,908.383163 104.181706,908.289825 104.297878,908.256706 L301.170156,908.256706 C301.898319,908.256706 302.58195,908.217564 303.404243,908.256706 C303.639567,908.270255 303.971553,908.184445 304,908.40725 L304,908.40725 Z M286.913697,899.008777 L286.527796,900.428408 C286.378857,901.009509 286.378857,901.030585 287.653925,901.030585 L302.054705,901.030585 L301.514056,902.968089 L283.024895,902.968089 C280.957619,902.968089 280.957619,902.915398 281.292733,901.590609 L283.193048,894.33438 C283.547523,893.042711 283.560927,893.060769 285.377985,893.060769 L302.7294,893.060769 C304.367731,893.060769 304.053618,893.315196 303.771974,894.444277 L302.744443,898.233474 C302.580461,898.909418 302.101025,898.986195 301.217816,899.010282 L286.909229,899.010282 L286.913697,899.008777 Z M289.167147,894.969672 C288.066338,894.969672 287.956271,894.962149 287.826694,895.538733 L287.423069,896.988474 L298.14669,896.988474 L298.523506,895.743474 C298.70968,894.978709 298.724574,894.978709 297.629871,894.969672 L289.167147,894.969672 Z M144.250814,894.969676 L139.310501,894.969676 C138.212819,894.969676 137.949197,895.011829 137.809194,895.624544 L136.519232,900.429914 L135.862559,902.939485 L130.809053,902.939485 L133.005905,894.570734 C133.391509,893.128521 133.375275,893.10895 135.527446,893.086369 L150.991652,893.086369 L150.486897,894.971182 L144.250814,894.969676 Z M274.05265,894.969676 L269.113827,894.969676 C268.016294,894.969676 267.752672,895.011829 267.61252,895.624544 L266.321217,900.429914 L265.664395,902.939485 L260.600463,902.939485 L262.81087,894.570734 C263.196622,893.128521 263.18009,893.10895 265.330921,893.086369 L280.790807,893.086369 L280.287393,894.971182 L274.05265,894.969676 Z M256.355845,893.065293 L260.937215,893.065293 L257.648638,905.536372 C257.30295,906.89127 256.559743,906.933422 254.300336,906.933422 L237.240842,906.933422 L237.714618,905.126892 L251.698517,905.126892 C252.907903,905.126892 253.228123,904.976348 253.380041,904.446433 L253.765644,902.940991 L239.981472,902.965078 C238.015326,902.965078 238.641019,901.671903 238.721446,901.309092 L240.42829,894.805583 L240.887022,893.065293 L246.017977,893.065293 L244.05198,900.441957 C243.968425,900.852943 243.903041,901.044134 244.808591,901.044134 L254.272186,901.044134 L256.355845,893.065293 Z M226.261046,894.933546 L224.771654,900.419376 C224.600523,900.923699 225.172449,901.092308 226.246301,901.075748 L236.196778,901.075748 L235.709896,902.930453 L221.240455,902.930453 C218.903599,902.930453 219.240202,902.385483 219.640699,900.883052 L221.215135,894.798056 L222.704527,889.11953 L227.30079,890.850788 L226.705033,893.078842 L238.283416,893.078842 L237.777172,894.963655 L232.507704,894.963655 L226.261046,894.933546 Z M216.906325,901.366299 C216.486316,902.912387 216.638085,902.966583 214.03165,902.966583 L200.841745,902.939485 L199.618954,906.868688 L195.137374,906.785889 L198.317077,894.805583 C198.665743,893.286593 198.717872,893.075831 201.163453,893.057765 L216.584616,893.057765 C218.58338,893.057765 219.088135,893.127016 218.650403,894.772464 L216.906325,901.366299 Z M209.608305,894.969676 L204.544373,894.969676 C203.44967,894.969676 203.245623,895.174417 203.153281,895.624544 L201.864957,900.429914 C201.732401,900.857459 201.924533,901.032091 203.005682,901.032091 L210.771371,901.059189 C211.516067,901.047145 211.869202,900.89359 212.006226,900.431419 L213.282634,895.591424 C213.431574,894.980215 212.470916,894.972687 211.669623,894.972687 L209.608305,894.969676 Z M191.379639,893.065293 L196.562722,893.065293 L194.394168,901.390386 C193.972521,902.817545 193.956286,902.972605 191.334808,902.972605 L176.04635,902.972605 C173.019906,902.972605 173.840561,901.602653 173.992479,900.898106 L175.63081,894.811605 L176.086563,893.065293 L181.132474,893.065293 L179.183009,900.441957 C179.065347,900.852943 179.598549,901.044134 180.679699,901.044134 L188.028507,901.044134 C188.68235,901.006498 189.31981,901.008004 189.453855,900.464539 L190.682603,895.624544 L191.379639,893.065293 Z M171.868606,901.212744 C171.421788,902.879268 171.432214,902.965078 168.119658,902.965078 L153.821496,902.965078 C150.5286,902.965078 151.395277,901.108868 151.417767,900.890579 L153.048502,894.804078 C153.434403,893.361865 154.700386,893.021635 157.665617,893.05626 L170.997312,893.05626 C173.380339,893.05626 173.871689,893.565099 173.484596,894.993764 L171.868606,901.212744 Z M164.397817,894.969676 L159.107497,894.969676 C158.012794,894.969676 158.082795,895.148824 157.953218,895.624544 L156.664894,900.429914 C156.550211,900.840899 156.594744,901.032091 157.677681,901.032091 L165.812739,901.059189 C166.427858,901.003487 166.83893,900.961335 166.956592,900.470561 L168.168808,895.624544 C168.305832,895.132264 167.947037,894.969676 167.147234,894.969676 L164.397817,894.969676 Z M121.689506,902.989165 L111.783413,902.989165 C108.170297,902.989165 103.816805,903.252617 104.169791,902.003101 C104.358943,901.331673 107.048785,891.032946 107.048785,891.032946 C107.630988,888.622734 108.737755,889.038236 110.95546,889.012643 L132.119568,889.012643 L131.641474,890.898962 L115.583,890.950147 C114.111481,890.879391 112.35385,890.874875 111.993566,891.803732 L109.741456,900.329049 C109.756499,900.466044 109.425854,901.023058 111.371,901.023058 L121.574823,901.044134 C122.802082,901.026069 123.834231,900.991444 124.035299,900.307973 L125.037659,896.43146 L119.191796,896.43146 L119.738403,894.356962 L130.682454,894.356962 L128.999441,900.92671 C128.470558,902.813028 126.689246,902.983143 121.685038,902.983143 L121.689506,902.989165 Z" id="Fill-1"></path>
        </g>
    </g>
</svg>