<?xml version="1.0" encoding="UTF-8" standalone="no"?>
<!-- Created with Inkscape (http://www.inkscape.org/) -->

<svg
   version="1.1"
   id="svg2"
   width="564.74664"
   height="83.893333"
   viewBox="0 0 564.74664 83.893333"
   sodipodi:docname="Grouptyre Logo New.eps"
   xmlns:inkscape="http://www.inkscape.org/namespaces/inkscape"
   xmlns:sodipodi="http://sodipodi.sourceforge.net/DTD/sodipodi-0.dtd"
   xmlns="http://www.w3.org/2000/svg"
   xmlns:svg="http://www.w3.org/2000/svg">
  <defs
     id="defs6" />
  <sodipodi:namedview
     id="namedview4"
     pagecolor="#ffffff"
     bordercolor="#000000"
     borderopacity="0.25"
     inkscape:showpageshadow="2"
     inkscape:pageopacity="0.0"
     inkscape:pagecheckerboard="0"
     inkscape:deskcolor="#d1d1d1" />
  <g
     id="g8"
     inkscape:groupmode="layer"
     inkscape:label="ink_ext_XXXXXX"
     transform="matrix(1.3333333,0,0,-1.3333333,0,83.893333)">
    <g
       id="g10"
       transform="scale(0.1)">
      <path
         d="M 373.457,335.984 H 163.609 c -76.4098,0 -168.78088,-5.507 -161.30431,20.653 4.03125,14.101 60.99221,229.929 60.99221,229.929 12.3515,50.508 35.7812,41.789 82.7581,42.329 13.531,0.132 448.343,0 448.343,0 l -10.14,-39.532 -340.199,-1.066 c -31.172,1.508 -68.391,1.59 -76.024,-17.883 L 120.348,391.727 c 0.332,-2.86 -6.672,-14.547 34.539,-14.547 l 216.191,-0.555 c 25.988,0.402 47.86,1.117 52.141,15.441 l 21.219,81.25 H 320.637 l 11.582,43.469 h 119.207 112.64 L 528.43,379.086 C 517.207,339.547 479.477,335.984 373.457,335.984"
         style="fill:#e51b24;fill-opacity:1;fill-rule:nonzero;stroke:none"
         id="path12" />
      <path
         d="M 1278.21,504.066 H 1166.2 c -23.2,0 -21.72,-3.75 -24.45,-13.711 l -27.28,-100.699 c -2.41,-8.601 -1.49,-12.578 21.46,-12.578 l 172.34,-0.558 c 13.02,1.156 21.74,2.035 24.24,12.335 l 25.57,101.5 c 2.9,10.333 -4.71,13.711 -21.66,13.711 z m 158.26,-130.847 c -9.63,-34.922 -9.24,-36.731 -79.41,-36.731 h -303.03 c -69.772,0 -51.38,38.887 -50.93,43.457 l 34.55,127.567 c 8.18,30.218 35,37.355 97.89,36.613 h 282.42 c 50.56,0 60.89,-10.68 52.69,-40.602 l -34.18,-130.304"
         style="fill:#e51b24;fill-opacity:1;fill-rule:nonzero;stroke:none"
         id="path14" />
      <path
         d="m 1849.77,544.125 h 109.81 l -45.93,-174.477 c -8.92,-29.921 -9.28,-33.164 -64.82,-33.164 h -323.85 c -64.12,0 -46.75,28.7 -43.54,43.461 l 34.57,127.559 9.78,36.621 h 106.88 l -41.3,-154.469 c -2.49,-8.621 8.81,-12.582 31.71,-12.582 h 155.67 c 13.87,0.801 27.34,0.762 30.19,12.164 l 26.11,101.117 14.72,53.77"
         style="fill:#e51b24;fill-opacity:1;fill-rule:nonzero;stroke:none"
         id="path16" />
      <path
         d="M 2235.91,504.066 H 2128.8 c -23.2,0 -27.51,-4.269 -29.47,-13.711 l -27.31,-100.699 c -2.78,-8.968 1.27,-12.578 24.18,-12.578 l 164.51,-0.558 c 15.8,0.246 23.26,3.457 26.17,13.136 l 27.02,101.442 c 3.18,12.797 -17.21,12.968 -34.19,12.968 z m 154.53,-134.054 c -8.89,-32.414 -5.68,-33.524 -60.9,-33.524 l -279.41,0.559 -25.89,-82.379 -94.93,1.727 67.36,251.117 c 7.41,31.812 8.49,36.246 60.3,36.613 h 326.75 c 42.35,0 53.02,-1.441 43.77,-35.937 l -37.05,-138.176"
         style="fill:#e51b24;fill-opacity:1;fill-rule:nonzero;stroke:none"
         id="path18" />
      <path
         d="m 2588.69,504.805 -31.44,-114.981 c -3.66,-10.566 8.47,-14.109 31.2,-13.75 h 210.82 l -10.33,-38.879 h -306.6 c -49.48,0 -42.36,11.438 -33.88,42.922 l 33.42,127.559 31.68,119.008 97.35,-36.27 -12.74,-46.687 h 245.25 l -10.73,-39.493 h -111.65 l -132.35,0.571"
         style="fill:#0b6fae;fill-opacity:1;fill-rule:nonzero;stroke:none"
         id="path20" />
      <path
         d="m 3226.23,544.125 h 97.04 l -69.64,-261.359 c -7.33,-28.235 -23.09,-29.27 -70.94,-29.27 h -361.36 l 10,37.754 h 296.24 c 25.64,0.039 32.43,3.242 35.64,14.285 l 8.17,31.512 -291.96,-0.563 c -41.67,0 -28.53,27.11 -26.71,34.571 l 36.1,136.449 9.72,36.621 h 108.7 l -41.64,-154.469 c -1.8,-8.601 -3.24,-12.582 16.01,-12.582 h 200.46 l 44.17,167.051"
         style="fill:#0b6fae;fill-opacity:1;fill-rule:nonzero;stroke:none"
         id="path22" />
      <path
         d="M 3601.15,504.066 H 3496.5 c -23.25,0 -28.85,-0.886 -31.81,-13.711 l -27.32,-100.699 -13.93,-52.609 h -107.1 l 46.64,175.391 c 8.18,30.246 7.84,30.617 53.39,31.117 h 327.6 l -10.67,-39.489 h -132.15"
         style="fill:#0b6fae;fill-opacity:1;fill-rule:nonzero;stroke:none"
         id="path24" />
      <path
         d="m 851.383,504.066 h -104.66 c -23.262,0 -28.832,-0.886 -31.801,-13.711 L 687.602,389.656 673.691,337.047 H 566.555 l 46.636,175.391 c 8.18,30.246 7.84,30.617 53.418,31.117 H 994.203 L 983.512,504.066 H 851.383"
         style="fill:#e51b24;fill-opacity:1;fill-rule:nonzero;stroke:none"
         id="path26" />
      <path
         d="m 3921.32,504.066 c -23.31,0 -25.66,0.172 -28.5,-11.918 l -8.55,-30.382 h 67.45 159.58 l 8.01,26.089 c 3.92,16.024 4.26,16.024 -18.85,16.211 z m -47.72,-84.656 -8.18,-29.754 c -3.21,-12.179 -3.21,-12.578 23.85,-12.578 h 305.07 l -11.46,-40.59 h -391.53 c -43.81,0 -43.81,1.11 -36.71,28.867 l 40.27,152.071 c 7.49,27.062 7.8,26.699 46.27,26.699 h 367.58 c 34.61,0 28.05,-5.336 22.04,-29.02 l -21.75,-79.398 c -3.46,-14.168 -13.63,-15.762 -32.34,-16.297 h -280.4 -22.71"
         style="fill:#0b6fae;fill-opacity:1;fill-rule:nonzero;stroke:none"
         id="path28" />
      <path
         d="M 4.27344,219.551 H 4234.26"
         style="fill:none;stroke:#0b6fae;stroke-width:6.89;stroke-linecap:butt;stroke-linejoin:miter;stroke-miterlimit:4;stroke-dasharray:none;stroke-opacity:1"
         id="path30" />
      <path
         d="M 0,167.07 H 24.3945 L 77.1914,98.7109 V 167.07 H 104.934 V 43.9453 H 82.5391 L 27.7383,113.711 V 43.9453 L 0,43.9453 V 167.07"
         style="fill:#0b6fae;fill-opacity:1;fill-rule:nonzero;stroke:none"
         id="path32" />
      <path
         d="m 167.203,91.5625 c -6.183,-2.2656 -12.363,-4.5312 -15.371,-11.1719 -1.34,-3.1328 -1.672,-5.75 -1.672,-6.9726 0.168,-5.4102 4.176,-10.6367 9.524,-10.6367 6.683,0 10.195,7.3242 10.863,8.7226 2.672,5.2344 3.34,10.8086 3.672,22.6758 z m 7.016,-47.6172 c -1,3.6602 -1.332,5.586 -1.332,9.5899 -3.844,-2.0899 -7.52,-4.1797 -11.199,-6.2696 -5.512,-2.9687 -10.188,-5.4101 -16.543,-5.4101 -4.676,0 -8.684,1.5625 -10.188,2.2656 -4.68,2.2656 -15.207,9.2383 -15.207,24.7656 0,3.6641 0.672,14.1211 8.691,21.4453 7.516,6.9805 19.043,9.766 28.235,12.383 l 17.543,4.187 c -4.68,8.547 -12.864,8.899 -16.039,8.899 -1,0 -2.672,0 -5.012,-0.528 -3.676,-0.695 -9.855,-3.132 -16.543,-9.062 l -9.355,15.691 c 7.355,5.063 19.046,12.219 39.433,12.219 3.672,0 18.379,0 29.074,-8.906 3.672,-2.957 6.512,-6.797 8.184,-11.152 2.676,-6.985 2.676,-14.6489 2.676,-21.9849 V 71.5039 c 0,-15.3516 0.332,-19.3555 2.84,-27.5586 h -35.258"
         style="fill:#0b6fae;fill-opacity:1;fill-rule:nonzero;stroke:none"
         id="path34" />
      <path
         d="m 215.945,131.848 h 12.035 v 21.277 l 33.583,5.41 v -26.687 h 22.054 V 115.801 H 261.563 V 84.9297 c 0,-9.9414 0.5,-14.8242 3.007,-19.0117 1,-1.7383 3.34,-5.2344 8.688,-5.2344 1.836,0 5.18,0.5273 9.187,2.4414 l 4.008,-15.8594 c -1.668,-0.5273 -3.172,-1.2304 -4.844,-1.7578 -3.004,-0.8594 -13.699,-3.6523 -24.39,-3.6523 -2.176,0 -10.531,0 -17.379,3.4883 -12.199,6.2773 -12.027,19.0117 -11.86,31.0429 v 39.4143 h -12.035 v 16.047"
         style="fill:#0b6fae;fill-opacity:1;fill-rule:nonzero;stroke:none"
         id="path36" />
      <path
         d="m 294.945,131.848 h 33.586 V 43.9453 h -33.586 z m 24.063,42.554 c 9.355,-3.836 10.527,-13.074 10.527,-16.57 0,-10.637 -7.855,-18.484 -17.715,-18.484 -10.023,0.172 -18.043,8.015 -18.043,18.308 0,2.793 0.5,5.235 1.672,7.676 4.008,9.59 12.699,10.469 16.039,10.469 1.168,0 4.348,-0.176 7.52,-1.399"
         style="fill:#0b6fae;fill-opacity:1;fill-rule:nonzero;stroke:none"
         id="path38" />
      <path
         d="m 405.535,101.152 c -0.168,0.703 -2.172,17.09 -13.531,17.09 -4.012,0 -7.02,-1.914 -9.191,-5.058 -6.016,-8.196 -5.848,-23.8871 -5.848,-25.1176 0,-8.5351 1.84,-30.5156 14.871,-30.5156 3.672,0 8.519,2.0976 11.695,9.7617 1.336,3.3125 3.008,10.8125 3.008,20.4023 0.164,6.1133 -0.672,11.3477 -1.004,13.4372 z m 30.742,-33.1442 c -8.351,-17.7851 -26.062,-26.1523 -44.273,-26.1523 -4.516,0 -9.024,0.6953 -10.363,0.8672 -6.18,1.2226 -23.559,5.2382 -33.082,22.6679 -2.172,3.8477 -5.848,11.8672 -5.848,23.5547 0,5.5742 0.668,17.7927 10.691,28.7697 5.684,6.465 17.883,16.406 38.434,16.406 5.012,0 19.547,-0.703 32.082,-10.293 6.016,-4.707 17.543,-15.879 16.875,-36.6327 0,-3.4844 -0.504,-10.9844 -4.516,-19.1875"
         style="fill:#0b6fae;fill-opacity:1;fill-rule:nonzero;stroke:none"
         id="path40" />
      <path
         d="m 455.113,131.848 h 33.582 v -12.727 c 4.348,5.574 11.868,14.824 28.907,15 14.035,-0.176 21.554,-6.808 25.066,-11.863 4.512,-6.457 5.18,-12.383 5.18,-27.2072 V 43.9453 h -33.586 v 51.1055 c 0,2.4375 1.168,16.5702 -11.528,16.5702 -4.511,0 -7.187,-1.582 -8.691,-2.617 -6.184,-4.707 -5.348,-13.9532 -5.348,-15.5274 V 43.9453 h -33.582 v 87.9027"
         style="fill:#0b6fae;fill-opacity:1;fill-rule:nonzero;stroke:none"
         id="path42" />
      <path
         d="m 609.281,91.5625 c -6.179,-2.2656 -12.363,-4.5312 -15.371,-11.1719 -1.336,-3.1328 -1.668,-5.75 -1.668,-6.9726 0.164,-5.4102 4.176,-10.6367 9.52,-10.6367 6.683,0 10.195,7.3242 10.867,8.7226 2.668,5.2344 3.34,10.8086 3.672,22.6758 z m 7.02,-47.6172 c -1.004,3.6602 -1.336,5.586 -1.336,9.5899 -3.844,-2.0899 -7.52,-4.1797 -11.195,-6.2696 -5.512,-2.9687 -10.192,-5.4101 -16.543,-5.4101 -4.676,0 -8.688,1.5625 -10.192,2.2656 -4.676,2.2656 -15.203,9.2383 -15.203,24.7656 0,3.6641 0.668,14.1211 8.691,21.4453 7.512,6.9805 19.043,9.766 28.231,12.383 l 17.547,4.187 c -4.68,8.547 -12.863,8.899 -16.043,8.899 -1,0 -2.668,0 -5.008,-0.528 -3.68,-0.695 -9.859,-3.132 -16.543,-9.062 l -9.355,15.691 c 7.351,5.063 19.046,12.219 39.433,12.219 3.672,0 18.379,0 29.07,-8.906 3.672,-2.957 6.516,-6.797 8.184,-11.152 2.676,-6.985 2.676,-14.6489 2.676,-21.9849 V 71.5039 c 0,-15.3516 0.332,-19.3555 2.844,-27.5586 h -35.258"
         style="fill:#0b6fae;fill-opacity:1;fill-rule:nonzero;stroke:none"
         id="path44" />
      <path
         d="m 667.387,173.359 h 33.586 V 43.9453 H 667.387 V 173.359"
         style="fill:#0b6fae;fill-opacity:1;fill-rule:nonzero;stroke:none"
         id="path46" />
      <path
         d="m 832.09,141.445 c -2.34,1.211 -8.527,4.883 -16.211,4.883 -7.688,-0.176 -11.363,-3.672 -11.363,-7.851 0,-1.399 0.339,-3.145 2.172,-5.586 2.175,-2.969 6.015,-6.27 12.035,-11.504 12.699,-11.348 27.566,-23.3792 27.566,-43.262 0,-9.7656 -4.008,-18.4766 -11.023,-24.9414 -6.184,-5.5781 -16.379,-11.3281 -34.59,-11.3281 -12.863,0 -20.719,2.9687 -25.731,5.0586 -5.847,2.4414 -9.187,4.707 -11.359,6.2695 l 10.855,20.4102 c 8.524,-7.3243 17.043,-8.7188 21.387,-8.7188 1.176,0 4.184,0 7.356,1.7461 5.511,2.793 6.015,8.3672 6.015,10.4687 0,1.7383 -0.172,4.3555 -2.172,7.8399 -2.339,4.3672 -5.511,7.3281 -12.867,13.7812 -2.844,2.6171 -5.847,5.0591 -8.687,7.8521 -9.188,8.367 -16.543,16.386 -16.543,30 0,2.441 0.332,9.062 4.008,15.164 7.687,13.253 24.066,17.445 37.593,17.445 6.016,0 17.379,-0.695 30.914,-8.02 l -9.355,-19.707"
         style="fill:#0b6fae;fill-opacity:1;fill-rule:nonzero;stroke:none"
         id="path48" />
      <path
         d="m 852.934,131.848 h 12.031 v 21.277 l 33.586,5.41 v -26.687 h 22.054 V 115.801 H 898.551 V 84.9297 c 0,-9.9414 0.496,-14.8242 3.008,-19.0117 1,-1.7383 3.339,-5.2344 8.683,-5.2344 1.836,0 5.184,0.5273 9.192,2.4414 l 4.007,-15.8594 c -1.668,-0.5273 -3.171,-1.2304 -4.843,-1.7578 -3.008,-0.8594 -13.7,-3.6523 -24.395,-3.6523 -2.172,0 -10.527,0 -17.379,3.4883 -12.195,6.2773 -12.023,19.0117 -11.859,31.0429 v 39.4143 h -12.031 v 16.047"
         style="fill:#0b6fae;fill-opacity:1;fill-rule:nonzero;stroke:none"
         id="path50" />
      <path
         d="m 931.934,131.848 h 33.586 v -24.25 l 4.007,11.523 c 0.668,1.387 1.172,2.781 1.84,4.18 3.008,6.621 7.184,10.82 14.535,10.82 2.844,0 4.512,-0.527 5.68,-0.879 3.512,-1.047 5.684,-2.09 11.028,-6.101 l -10.524,-25.637 c -3.176,1.211 -6.016,1.738 -9.523,1.738 -2.508,0 -10.196,-0.176 -14.372,-7.6756 -2.507,-4.707 -2.507,-9.0625 -2.671,-19.3555 V 43.9453 h -33.586 v 87.9027"
         style="fill:#0b6fae;fill-opacity:1;fill-rule:nonzero;stroke:none"
         id="path52" />
      <path
         d="m 1064.4,98.5352 c 1,14.1208 -3.84,20.9298 -11.53,20.9298 -11.2,-0.18 -11.86,-12.727 -11.86,-20.9298 z m 28.24,-47.2657 c -2.01,-1.0468 -4.18,-2.0898 -6.35,-2.9687 -4.01,-1.5625 -17.05,-6.6211 -31.08,-6.6211 -11.53,0 -22.56,3.3086 -31.75,10.4687 -6.18,4.8829 -17.54,16.211 -17.54,37.3243 0,6.7968 1.17,13.0783 3.84,19.1793 4.68,10.989 16.71,25.469 43.61,25.469 9.36,-0.176 18.21,-2.101 25.57,-8.203 6.34,-5.41 14.03,-15.703 14.03,-35.0586 0,-2.4414 -0.17,-4.7071 -0.17,-7.1485 h -51.96 c 0.17,-1.5703 0.17,-5.2343 1.84,-9.0703 1.84,-4.3593 7.35,-11.8593 18.88,-11.8593 3.17,0 6.18,0.5195 7.01,0.6953 6.19,1.2304 9.19,2.7929 14.71,5.7617 l 9.36,-17.9688"
         style="fill:#0b6fae;fill-opacity:1;fill-rule:nonzero;stroke:none"
         id="path54" />
      <path
         d="m 1107.8,131.848 h 33.58 v -12.727 c 4.35,5.574 11.87,14.824 28.91,15 14.03,-0.176 21.55,-6.808 25.06,-11.863 4.51,-6.457 5.18,-12.383 5.18,-27.2072 V 43.9453 h -33.58 v 51.1055 c 0,2.4375 1.17,16.5702 -11.53,16.5702 -4.51,0 -7.19,-1.582 -8.69,-2.617 -6.18,-4.707 -5.35,-13.9532 -5.35,-15.5274 V 43.9453 h -33.58 v 87.9027"
         style="fill:#0b6fae;fill-opacity:1;fill-rule:nonzero;stroke:none"
         id="path56" />
      <path
         d="m 1264.31,115.801 c -1.17,0 -3.17,0 -5.35,-1.563 -6.67,-4.543 -8.18,-19.363 -8.18,-26.3474 0.17,-16.2109 6.18,-28.0781 14.2,-27.9023 8.52,0 13.2,11.8672 13.37,27.9023 0,8.5547 -1.5,27.9104 -14.04,27.9104 z m 47.62,16.047 V 68.5352 c 0,-8.5469 -0.17,-19.5313 -1.5,-27.9102 C 1307.08,19.8828 1296.56,11.1523 1289.38,6.97266 1277.51,0 1264.81,0 1260.47,0 c -7.69,0 -20.89,0.859375 -38.1,7.66797 l 4.85,20.57423 c 1.84,-1.0352 3.68,-2.0899 5.51,-2.9609 2.68,-1.2188 11.2,-4.3633 20.72,-4.3633 14.54,0 21.22,7.8515 23.22,13.9648 1.18,3.1328 1.51,6.4453 1.68,12.8985 l -0.17,7.8437 c -7.69,-8.7109 -14.2,-13.7695 -26.07,-13.7695 -11.52,0 -18.04,4.707 -21.55,8.0195 -14.37,12.5547 -15.2,32.793 -15.2,38.1914 0,2.4414 0.16,8.5547 1.84,15.1756 4.84,17.617 17.87,30.879 36.09,30.879 11.69,-0.176 18.21,-5.762 21.55,-9.246 1.34,-1.398 1.67,-1.75 3.51,-4.719 v 11.692 h 33.58"
         style="fill:#0b6fae;fill-opacity:1;fill-rule:nonzero;stroke:none"
         id="path58" />
      <path
         d="m 1321.24,131.848 h 12.03 v 21.277 l 33.59,5.41 v -26.687 h 22.05 v -16.047 h -22.05 V 84.9297 c 0,-9.9414 0.49,-14.8242 3,-19.0117 1,-1.7383 3.34,-5.2344 8.69,-5.2344 1.84,0 5.18,0.5273 9.19,2.4414 l 4.01,-15.8594 c -1.67,-0.5273 -3.18,-1.2304 -4.85,-1.7578 -3,-0.8594 -13.7,-3.6523 -24.39,-3.6523 -2.17,0 -10.53,0 -17.38,3.4883 -12.2,6.2773 -12.02,19.0117 -11.86,31.0429 v 39.4143 h -12.03 v 16.047"
         style="fill:#0b6fae;fill-opacity:1;fill-rule:nonzero;stroke:none"
         id="path60" />
      <path
         d="m 1400.24,173.359 h 33.58 v -53.027 c 0.67,0.879 2.51,3.145 5.02,5.234 9.19,8.204 19.21,8.555 23.56,8.555 3.84,0 17.71,-0.351 25.73,-12.219 4.34,-6.804 4.84,-12.207 4.84,-27.027 V 43.9453 h -33.58 v 49.8828 c 0,5.0586 -0.17,8.0269 -0.84,9.9419 -0.83,2.793 -3.51,7.851 -10.69,7.851 -1.34,0 -5.18,0 -8.52,-2.617 -5.52,-4.191 -5.52,-10.4688 -5.52,-16.7462 V 43.9453 h -33.58 V 173.359"
         style="fill:#0b6fae;fill-opacity:1;fill-rule:nonzero;stroke:none"
         id="path62" />
      <path
         d="m 1560.11,167.07 h 16.54 V 56.3281 h 48.29 V 43.9453 h -64.83 V 167.07"
         style="fill:#0b6fae;fill-opacity:1;fill-rule:nonzero;stroke:none"
         id="path64" />
      <path
         d="m 1664.67,120.859 c -7.69,-3.664 -14.88,-13.429 -14.88,-32.6168 0,-17.793 6.02,-27.7344 12.71,-32.0899 2.17,-1.3867 6.01,-3.1445 12.19,-3.1445 7.52,0 18.38,2.9688 22.56,20.586 1.17,4.8828 1.67,10.2929 1.67,15.3515 0,2.6172 0,7.5 -1.5,13.6057 -1.34,4.879 -6.18,20.047 -22.56,20.398 -1.84,0 -5.85,0 -10.19,-2.09 z m 26.39,9.59 c 8.36,-4.004 24.23,-16.047 24.23,-41.8552 0,-24.9415 -15.2,-46.7383 -40.93,-46.7383 -8.19,0 -13.7,2.2656 -16.71,3.6523 -16.71,7.5 -24.06,24.9414 -24.06,43.086 0,2.9687 0,10.4687 2.84,18.3082 6.02,16.926 20.88,27.043 37.93,27.219 2.67,0 9.52,-0.351 16.7,-3.672"
         style="fill:#0b6fae;fill-opacity:1;fill-rule:nonzero;stroke:none"
         id="path66" />
      <path
         d="m 1792.45,117.891 c -2.67,1.574 -9.03,5.058 -17.88,5.058 -1.17,0 -4.01,0 -7.35,-0.871 -8.69,-1.922 -23.73,-9.246 -23.73,-33.1327 0,-5.5859 0.67,-10.8203 2.51,-15.8789 2.51,-6.9726 9.69,-20.2226 28.4,-20.0586 10.86,0 17.88,4.3672 21.22,6.8047 l 4.18,-8.8945 c -1.34,-1.043 -3.01,-2.0899 -4.51,-2.9571 -4.35,-2.6171 -12.53,-6.1054 -24.73,-6.1054 -2.34,0 -8.86,0 -15.37,2.6172 -8.69,3.3086 -28.07,15.3398 -28.07,43.2421 0,12.043 3.51,22.8512 11.36,31.5702 5.01,5.754 16.04,14.836 34.92,14.836 3.01,0 11.86,-0.176 20.22,-4.719 1.5,-0.691 2.84,-1.57 4.17,-2.617 l -5.34,-8.894"
         style="fill:#0b6fae;fill-opacity:1;fill-rule:nonzero;stroke:none"
         id="path68" />
      <path
         d="m 1849.22,92.9492 c -1,-0.3437 -10.69,-2.9609 -16.71,-6.6211 -8.52,-5.4101 -9.69,-12.7343 -9.69,-17.0898 0,-1.0547 0,-3.1445 0.84,-5.7617 2.51,-8.0274 9.02,-9.2383 12.03,-9.2383 7.18,0 13.53,5.9297 17.21,12.207 6.51,11.1602 5.68,25.9844 5.68,29.1211 z m 11.53,-49.0039 c -1.67,4.707 -2.17,6.7969 -2.67,15.3516 -2.01,-2.4414 -12.37,-17.4414 -27.74,-17.4414 -14.03,0 -23.22,12.207 -23.22,26.1523 0,9.25 3.67,16.4063 10.69,21.9805 7.52,5.9297 18.55,9.0742 27.23,11.6917 l 13.21,4.355 c -0.17,1.914 -0.51,8.028 -4.69,12.383 -5.01,5.41 -11.19,5.41 -13.53,5.41 -1.5,0 -3.17,0 -6.01,-0.703 -5.51,-1.387 -11.36,-5.234 -12.36,-6.105 -1.01,-0.692 -2.18,-1.571 -3.18,-2.618 l -5.68,8.02 c 4.68,4.363 14.03,11.699 29.91,11.699 17.54,-0.176 26.06,-9.246 28.74,-16.582 2.17,-5.918 2,-13.769 2,-19.8827 v -25.625 c 0,-15.879 0.33,-19.543 3.67,-28.086 h -16.37"
         style="fill:#0b6fae;fill-opacity:1;fill-rule:nonzero;stroke:none"
         id="path70" />
      <path
         d="m 1896.3,173.359 h 15.21 V 43.9453 H 1896.3 V 173.359"
         style="fill:#0b6fae;fill-opacity:1;fill-rule:nonzero;stroke:none"
         id="path72" />
      <path
         d="m 2035.11,148.242 c -9.69,7.5 -15.53,8.723 -21.21,8.723 -2.18,0 -10.03,-0.18 -14.88,-6.106 -2.34,-2.793 -3.67,-6.632 -3.67,-10.293 0,-4.531 1.84,-7.5 2.67,-8.886 3.68,-5.586 12.2,-11.7 24.4,-21.114 2.67,-2.089 5.34,-4.179 8.01,-6.445 8.86,-7.6757 15.04,-16.4062 15.04,-28.953 0,-4.7188 -0.83,-13.7813 -9.02,-21.9844 -5.01,-5.0586 -13.87,-11.3281 -29.91,-11.3281 -5.34,0 -16.71,0.6953 -29.07,8.1953 -1.67,1.043 -3.34,2.2617 -5.01,3.4844 l 7.85,11.1718 c 8.19,-5.9375 16.04,-10.6445 26.57,-10.6445 17.21,0 21.22,12.3828 21.22,19.5313 0,3.8359 -1.01,9.7656 -7.02,16.2187 -5.51,5.7539 -17.04,14.1325 -23.22,18.8395 -6.19,4.707 -9.19,7.676 -11.7,10.469 -7.19,8.192 -8.19,15.52 -8.19,20.227 0,5.75 1.84,10.117 2.67,11.863 3.68,7.676 14.21,17.961 33.75,17.961 15.55,0 24.9,-6.984 29.58,-10.988 l -8.86,-9.942"
         style="fill:#0b6fae;fill-opacity:1;fill-rule:nonzero;stroke:none"
         id="path74" />
      <path
         d="m 2116.46,96.9648 c -0.18,8.5432 -1.34,17.6132 -8.7,22.8482 -1.67,1.222 -5.18,3.136 -10.52,3.136 -2.51,0 -8.35,-0.527 -13.7,-5.058 -8.02,-6.797 -8.69,-18.3129 -8.86,-20.9262 z m 13.03,-44.8164 c -10.03,-6.6406 -18.05,-10.2929 -30.08,-10.2929 -5.18,0 -16.37,0.3515 -26.73,9.9414 -14.37,13.0781 -14.71,31.3867 -14.71,37.6758 0,5.0468 0.17,17.0903 8.19,28.4183 4.01,5.586 13.7,16.23 31.58,16.23 7.02,-0.176 11.2,-1.582 13.87,-2.969 5.51,-2.441 14.04,-9.414 17.54,-24.25 1.17,-4.882 1.84,-9.7614 1.84,-20.0465 h -56.81 c 0,-3.3203 0,-8.7305 3.01,-16.0547 6.68,-15.8711 19.88,-17.957 25.73,-17.957 4.68,0 12.87,1.2187 22.22,7.8398 l 4.35,-8.5352"
         style="fill:#0b6fae;fill-opacity:1;fill-rule:nonzero;stroke:none"
         id="path76" />
      <path
         d="m 2146.82,131.848 h 15.22 v -13.254 l 3.83,4.883 c 2.18,2.968 6.19,8.371 9.7,9.941 1.16,0.352 2.67,0.703 3.84,0.703 2.18,0 3.51,-0.527 4.34,-0.703 2.68,-1.055 6.19,-3.32 10.69,-8.027 l -7.01,-10.118 c -1,0.528 -6.35,3.497 -11.19,3.497 -4.69,0 -8.36,-2.618 -10.53,-6.805 -3.85,-6.809 -3.67,-17.9611 -3.67,-25.4611 V 43.9453 h -15.22 v 87.9027"
         style="fill:#0b6fae;fill-opacity:1;fill-rule:nonzero;stroke:none"
         id="path78" />
      <path
         d="m 2196.09,129.227 14.54,4.367 26.05,-68.3713 26.91,68.3713 12.53,-3.145 -35.92,-86.5037 h -9.36 l -34.75,85.2817"
         style="fill:#0b6fae;fill-opacity:1;fill-rule:nonzero;stroke:none"
         id="path80" />
      <path
         d="m 2287.62,131.848 h 15.2 V 43.9453 h -15.2 z m 17.21,28.25 c 0,-5.578 -4.18,-10.118 -9.69,-10.118 -2.34,0 -3.85,0.879 -4.51,1.231 -1.68,0.867 -5.02,3.477 -5.02,8.887 0,5.761 3.85,9.941 9.36,9.941 5.51,0.176 9.86,-4.004 9.86,-9.941"
         style="fill:#0b6fae;fill-opacity:1;fill-rule:nonzero;stroke:none"
         id="path82" />
      <path
         d="m 2385.51,117.891 c -2.67,1.574 -9.02,5.058 -17.88,5.058 -1.17,0 -4.01,0 -7.35,-0.871 -8.69,-1.922 -23.73,-9.246 -23.73,-33.1327 0,-5.5859 0.67,-10.8203 2.51,-15.8789 2.51,-6.9726 9.69,-20.2226 28.41,-20.0586 10.86,0 17.87,4.3672 21.21,6.8047 l 4.18,-8.8945 c -1.33,-1.043 -3.01,-2.0899 -4.52,-2.9571 -4.33,-2.6171 -12.52,-6.1054 -24.72,-6.1054 -2.35,0 -8.85,0 -15.37,2.6172 -8.69,3.3086 -28.07,15.3398 -28.07,43.2421 0,12.043 3.51,22.8512 11.37,31.5702 5,5.754 16.03,14.836 34.91,14.836 3.01,0 11.87,-0.176 20.22,-4.719 1.51,-0.691 2.84,-1.57 4.17,-2.617 l -5.34,-8.894"
         style="fill:#0b6fae;fill-opacity:1;fill-rule:nonzero;stroke:none"
         id="path84" />
      <path
         d="m 2458.99,96.9648 c -0.17,8.5432 -1.34,17.6132 -8.68,22.8482 -1.67,1.222 -5.19,3.136 -10.53,3.136 -2.51,0 -8.36,-0.527 -13.7,-5.058 -8.03,-6.797 -8.69,-18.3129 -8.86,-20.9262 z m 13.04,-44.8164 c -10.03,-6.6406 -18.05,-10.2929 -30.08,-10.2929 -5.18,0 -16.38,0.3515 -26.73,9.9414 -14.38,13.0781 -14.71,31.3867 -14.71,37.6758 0,5.0468 0.17,17.0903 8.19,28.4183 4.01,5.586 13.7,16.23 31.58,16.23 7.02,-0.176 11.19,-1.582 13.87,-2.969 5.51,-2.441 14.03,-9.414 17.54,-24.25 1.17,-4.882 1.84,-9.7614 1.84,-20.0465 h -56.81 c 0,-3.3203 0,-8.7305 3.01,-16.0547 6.68,-15.8711 19.88,-17.957 25.72,-17.957 4.69,0 12.88,1.2187 22.23,7.8398 l 4.35,-8.5352"
         style="fill:#0b6fae;fill-opacity:1;fill-rule:nonzero;stroke:none"
         id="path86" />
    </g>
  </g>
</svg>
