<?xml version="1.0" encoding="UTF-8"?>
<svg width="133px" height="30px" viewBox="0 0 133 30" version="1.1" xmlns="http://www.w3.org/2000/svg" xmlns:xlink="http://www.w3.org/1999/xlink">
    <defs></defs>
    <g id="Welcome" stroke="none" stroke-width="1" fill="none" fill-rule="evenodd">
        <g id="gtp_tread_depth" transform="translate(-449.000000, -697.000000)">
            <g id="Group" transform="translate(419.000000, 560.000000)">
                <g id="Group-Copy">
                    <g id="Group-3" transform="translate(29.000000, 137.000000)">
                        <path d="M119.311995,0.907055961 C125.968686,-0.00340632603 132.103236,4.65498783 133.013698,11.3119221 C133.924161,17.9688564 129.265766,24.103163 122.608832,25.0136253 C115.951898,25.9240876 109.817591,21.2656934 108.907129,14.6087591 C107.996667,7.95206813 112.655061,1.81751825 119.311995,0.907055961" id="Fill-1" fill="#CFD3D5"></path>
                        <path d="M111.823455,11.3636496 L0.909829684,29.3787348 L112.587689,16.9517275 C114.27747,20.4981995 118.116642,22.7098783 122.217129,22.1490511 C127.291825,21.4551338 130.843163,16.7784915 130.149002,11.7035523 C129.455085,6.62885645 124.778443,3.07751825 119.703747,3.77167883 C115.60326,4.33250608 112.498881,7.49357664 111.823455,11.3636496" id="Fill-3" fill="#E93323"></path>
                    </g>
                </g>
            </g>
        </g>
    </g>
</svg>