<svg xmlns="http://www.w3.org/2000/svg" fill="none" viewBox="0 0 17 16">
    <path fill="#E93323" fill-rule="evenodd"
        d="M16.53 7.97c0-2.76-.8-5.32-2.18-7.5l-1.62 1.06c1.18 1.86 1.82 4.06 1.82 6.44 0 2.4-.62 4.64-1.82 6.5l1.62 1.06c1.4-2.18 2.18-4.8 2.18-7.56zm-6-.01c-.003-1.576-.462-2.993-1.26-4.25L7.59 4.77c.6.94.94 2 .94 3.18 0 1.18-.34 2.32-.94 3.26l1.68 1.06a8.154 8.154 0 001.26-4.31zm0 0v-.01.02-.01zm-8-1.99c1.1 0 2 .9 2 2s-.9 2-2 2-2-.9-2-2 .9-2 2-2z"
        clip-rule="evenodd" />
</svg>